<?xml version="1.0" encoding="UTF-8" standalone="no"?>
<svg xmlns:dc="http://purl.org/dc/elements/1.1/" xmlns:cc="http://creativecommons.org/ns#" xmlns:rdf="http://www.w3.org/1999/02/22-rdf-syntax-ns#" xmlns:svg="http://www.w3.org/2000/svg" xmlns="http://www.w3.org/2000/svg" width="800" height="310" viewBox="0 0 211.66667 82.020836" version="1.1" id="svg8">
  <defs id="defs2"/>
  <metadata id="metadata5">
    
  </metadata>
  <g id="layer6" style="display:inline">
    <g id="g12860" transform="matrix(1.0054766,0,0,1.0054766,-0.57960642,-0.22706696)">
      <g id="g12651">
        <g id="g6668" transform="matrix(1.2217199,0,0,1.2217199,-10.932489,4.2841403)">
          <path style="display:inline;fill:#fff9a2;fill-opacity:1;stroke:none;stroke-width:0.134525;stroke-linecap:round;stroke-linejoin:round;paint-order:stroke fill markers" d="m 47.464092,13.638992 0.37207,0.504878 -4.733044,3.495911 -0.448035,-0.606681 0.432014,-0.319361 -0.559138,-0.75706 0.642337,-0.474389 0.635103,0.859379 z" id="path5871"/>
          <path style="display:inline;fill:#fff9a2;fill-opacity:1;stroke:none;stroke-width:0.134525;stroke-linecap:round;stroke-linejoin:round;paint-order:stroke fill markers" d="m 58.777612,10.40198 -2.37608,1.754931 -0.591696,-0.800984 -4.162536,3.074231 0.669208,0.905371 0.774112,-0.571541 0.591696,0.800984 1.455209,-1.07487 0.481107,0.650607 -0.818038,0.604097 0.573608,0.776697 -0.699698,0.516764 0.54002,0.730705 -0.593247,0.438216 0.565341,0.765845 -0.666626,0.492476 0.669208,0.905372 0.146246,-0.108004 0.275953,0.373104 -1.122413,0.82889 0.66921,0.905888 0.604613,-0.447002 0.294555,0.398426 -1.315164,0.971517 0.669211,0.905371 0.469222,-0.346749 0.223242,0.302307 -0.01291,0.0093 0.669208,0.905371 0.714168,-0.527617 0.440802,0.596863 2.235004,-1.651579 -0.440283,-0.596346 0.415478,-0.306958 -0.502811,-0.681095 0.748276,-0.552938 -0.668692,-0.905888 -0.469742,0.346749 -0.266649,-0.360702 1.315167,-0.971517 -0.668695,-0.905887 -0.605131,0.447001 -0.243912,-0.329696 1.122411,-0.82889 -0.448551,-0.607715 4.311883,-3.184818 -0.565341,-0.765845 0.666626,-0.492477 -0.54002,-0.730704 0.593246,-0.438216 -0.668692,-0.905371 -3.697965,2.731616 -0.479557,-0.649056 0.818036,-0.604098 -0.575159,-0.778764 0.146245,-0.108003 z" id="path5869"/>
          <path style="display:inline;fill:#fff9a2;fill-opacity:1;stroke:none;stroke-width:0.134525;stroke-linecap:round;stroke-linejoin:round;paint-order:stroke fill markers" d="m 34.252496,21.840042 -0.381373,-0.516248 0.160713,-0.118856 -0.668692,-0.905371 -0.462505,0.341581 -0.551387,-0.746207 -0.152447,0.112654 -0.415994,-0.562756 2.577621,-1.904277 -0.66921,-0.905371 -0.674894,0.498678 -0.529686,-0.717269 0.32453,-0.239779 -0.546737,-0.740523 2.482535,-1.83348 -0.668692,-0.905371 -2.039668,1.506368 -0.536403,-0.726054 -5.709211,4.216797 0.536401,0.726571 -2.274798,1.680001 -0.571024,-0.772046 0.438732,-0.324012 -0.544152,-0.737422 0.455787,-0.336414 -0.668692,-0.905371 -0.328147,0.242363 -0.502296,-0.680579 -0.489376,0.361735 -0.566888,-0.767395 -0.511598,0.377754 -0.165881,-0.224275 1.373042,-1.014408 -0.56534,-0.765328 0.728122,-0.537435 -0.668694,-0.905372 -0.227375,0.167949 -0.503846,-0.682129 -0.571024,0.422196 -0.205674,-0.278536 0.440285,-0.325561 -0.668695,-0.905371 -1.318265,0.973584 -0.450101,-0.609782 1.230416,-0.908472 -0.669211,-0.905371 -1.050581,0.77618 -0.560173,-0.75861 -4.734079,3.496944 0.560173,0.75861 -0.547253,0.40411 0.613399,0.83044 -1.2299,0.908472 0.668695,0.905371 2.9161,-2.153874 0.429432,0.58136 -0.440801,0.325562 0.669211,0.905371 0.571023,-0.42168 0.281639,0.381372 0.227891,-0.167948 0.399976,0.541569 -0.728121,0.537952 0.343649,0.465087 -2.348693,1.734778 0.669208,0.905888 0.512114,-0.378271 0.490408,0.664042 0.489376,-0.361735 0.566891,0.767395 0.328147,-0.242363 0.377754,0.512114 -0.455788,0.33693 0.625288,0.846977 -0.438735,0.324011 0.614434,0.830957 -0.66611,0.49196 0.668692,0.905371 8.207254,-6.062162 0.513146,0.694531 -0.324527,0.239779 0.668692,0.905371 0.674893,-0.498161 0.475941,0.643888 -2.577621,1.90376 -0.744141,0.549837 0.669211,0.905371 0.74414,-0.549837 0.152445,-0.112655 0.386025,0.522449 -0.546222,0.403593 0.668695,0.905371 0.847492,-0.626318 0.381373,0.516248 0.808217,-0.596863 0.497645,0.67386 0.684196,-0.505395 0.506429,0.685229 4.046783,-2.988964 -0.668694,-0.905372 -0.684197,0.505396 -0.335378,-0.453719 z" id="path5867"/>
          <path style="display:inline;fill:#fff9a2;fill-opacity:1;stroke:none;stroke-width:0.134525;stroke-linecap:round;stroke-linejoin:round;paint-order:stroke fill markers" d="m 52.071046,8.8367005 -5.625497,4.1553025 -0.635103,-0.85938 -3.940329,2.910417 -0.591695,-0.801501 -1.8526,1.368392 -0.451135,-0.610816 0.529166,-0.390674 -0.668692,-0.905371 -4.046781,2.988965 0.563788,0.763261 -0.529167,0.391191 0.55604,0.752409 -0.463021,0.342098 0.591696,0.801501 -0.561724,0.414962 0.559139,0.75706 -1.252635,0.925525 0.668692,0.905371 2.921267,-2.158008 0.542605,0.734839 0.603062,-0.445451 0.574643,0.77773 0.717786,-0.5302 0.589111,0.797367 0.514696,-0.380338 0.533302,0.72192 -0.563274,0.415995 0.668695,0.905371 0.296106,-0.218591 0.596344,0.807186 0.283189,-0.20929 0.557588,0.754476 0.331761,-0.244947 0.583428,0.790133 0.812871,-0.60048 0.599961,0.81132 3.959966,-2.924886 -0.599445,-0.811837 1.067633,-0.788582 -0.668692,-0.905371 -0.887801,0.655774 -0.583428,-0.79065 -0.756025,0.558623 -0.557073,-0.754476 -0.296621,0.219108 -0.549839,-0.744658 2.89233,-2.136304 -0.579292,-0.784448 1.013375,-0.748791 -0.58911,-0.797368 0.912606,-0.673861 0.553968,0.749309 2.987932,-2.207101 -0.553971,-0.749825 0.929142,-0.686263 -0.668692,-0.905371 -0.462505,0.341581 -0.372586,-0.504362 0.463537,-0.3426144 z" id="path5865"/>
          <path style="display:inline;fill:#fff9a2;fill-opacity:1;stroke:none;stroke-width:0.134525;stroke-linecap:round;stroke-linejoin:round;paint-order:stroke fill markers" d="m 78.994467,7.149465 -1.005107,0.7425904 -0.529683,-0.717269 -8.559683,6.3231286 0.668692,0.905371 1.005623,-0.74259 0.529166,0.716752 1.000975,-0.73949 0.348297,0.471289 -0.479041,0.353984 0.592214,0.802018 -0.811321,0.59893 0.578776,0.783415 -0.35915,0.265616 0.544152,0.737423 -0.497128,0.36742 0.640789,0.867647 -0.41238,0.304891 0.546222,0.73949 -0.677479,0.500227 0.668692,0.905888 h 5.29e-4 l 0.378789,0.513147 -1.296046,0.957565 0.668692,0.905371 5.144908,-3.800285 -0.504362,-0.683163 1.518769,-1.121895 0.30644,0.414962 -0.389638,0.287837 0.596863,0.807703 -0.975651,0.720886 0.6258,0.846977 -0.287322,0.21239 0.546222,0.73949 -0.415996,0.306958 0.668692,0.905371 0.463021,-0.342098 0.613399,0.830441 0.445453,-0.329179 0.612364,0.829406 0.729671,-0.538985 0.600998,0.813387 0.770496,-0.569474 0.4439,0.600997 0.763262,-0.56379 0.526066,0.712618 5.927804,-4.378544 -0.526068,-0.712102 0.309025,-0.228409 -0.669208,-0.905372 -0.770496,0.569475 -0.443902,-0.600997 -0.72967,0.538985 -0.544669,-0.737423 2.660301,-1.965254 0.621152,0.840258 0.326077,-0.240812 0.580843,0.786515 0.32453,-0.239778 0.470254,0.63717 -0.702283,0.518832 0.668694,0.905371 0.112655,-0.0832 0.455784,0.617016 -1.541507,1.138432 0.628385,0.850078 -0.611849,0.452168 0.668695,0.905372 0.703315,-0.519349 0.578776,0.783415 0.854729,-0.631486 0.598929,0.810803 2.209684,-1.631941 -0.598413,-0.810804 0.464055,-0.343131 -0.578776,-0.783415 0.392223,-0.289905 -0.627869,-0.850594 1.736328,-1.282609 -0.508495,-0.688847 1.207162,-0.891418 -0.615466,-0.834058 2.278419,-1.682585 -0.55346,-0.748791 1.25005,-0.923458 -0.66869,-0.905371 -0.12557,0.0925 -0.586531,-0.793234 -6.082835,4.493266 -0.533299,-0.721403 1.490348,-1.100708 -0.668692,-0.905371 -1.130166,0.834575 -0.547253,-0.74104 -2.795694,2.06499 0.547254,0.74104 -3.928959,2.902148 -0.490411,-0.663525 0.415997,-0.307475 -0.625804,-0.846977 2.204517,-1.628324 -0.596345,-0.808219 0.975136,-0.72037 -0.484728,-0.65629 0.390157,-0.287838 -0.668692,-0.905371 -2.860291,2.112532 -0.365353,-0.494543 1.844334,-1.362191 -0.668695,-0.905888 -1.166852,0.861963 -0.546221,-0.73949 -1.63711,1.209229 -0.640786,-0.868164 -0.433565,0.319877 L 80.41868,10.675865 78.945384,11.76417 78.443091,11.084109 79.25441,10.485179 78.727309,9.7715272 79.206351,9.4175438 78.716459,8.754535 79.663688,8.0548361 Z" id="rect6436-5-7-9"/>
          <path id="path927-2" style="fill:#4792d0;fill-opacity:1;stroke:none;stroke-width:0.177655;stroke-linecap:butt;stroke-linejoin:round;stroke-miterlimit:4;stroke-dasharray:none;stroke-opacity:0.988235;paint-order:markers fill stroke" d="m 18.083867,11.418472 -4.992166,0.0066 -0.619085,12.241026 5.489305,0.05129 c 6.92002,0 6.002896,-12.29888 0.121946,-12.29888 z m -0.487438,2.90973 c 3.101248,0 3.584754,6.48081 -0.06444,6.48081 l -2.047792,-0.02702 0.326343,-6.450324 z"/>
          <path id="path931-8" style="fill:#4792d0;fill-opacity:1;stroke:none;stroke-width:0.177655;stroke-linecap:round;stroke-linejoin:round;stroke-miterlimit:4;stroke-dasharray:none;stroke-opacity:0.988235;paint-order:markers fill stroke" d="m 29.293203,12.821545 a 5.7158541,5.7158541 0 0 0 -5.71241,5.715875 5.7158541,5.7158541 0 0 0 5.715528,5.715876 5.7158541,5.7158541 0 0 0 5.715875,-5.715876 5.7158541,5.7158541 0 0 0 -5.715875,-5.715875 5.7158541,5.7158541 0 0 0 -0.0032,0 z m 0.0032,2.813421 a 2.9022464,2.9022464 0 0 1 2.902454,2.902454 2.9022464,2.9022464 0 0 1 -2.902454,2.902109 2.9022464,2.9022464 0 0 1 -2.902109,-2.902109 2.9022464,2.9022464 0 0 1 2.902109,-2.902454 z"/>
          <path style="fill:#4792d0;fill-opacity:1;stroke:none;stroke-width:0.177376px;stroke-linecap:butt;stroke-linejoin:round;stroke-opacity:0.988235;paint-order:markers fill stroke" d="m 35.863654,22.975912 0.458116,-10.010446 2.710355,0.199558 5.761068,6.940397 0.356355,-8.924062 2.74499,0.187529 -0.613028,12.813239 -2.473771,-0.100312 -5.986316,-6.982273 -0.282805,5.876558 z" id="path935-6"/>
          <path style="fill:#4792d0;fill-opacity:1;stroke:none;stroke-width:0.177376px;stroke-linecap:butt;stroke-linejoin:round;stroke-opacity:0.988235;paint-order:markers fill stroke" d="m 48.956771,9.3249308 1.666316,-0.029189 v 0.222446 l 0.75198,-0.018952 v 0.3856068 h 0.38595 l -0.17339,1.9660314 -0.53309,1.477846 -1.24699,-0.368446 0.45708,-0.946115 -1.356125,-0.158184 z" id="path937-7"/>
          <path style="fill:#4792d0;fill-opacity:1;stroke:none;stroke-width:0.177376px;stroke-linecap:butt;stroke-linejoin:round;stroke-opacity:0.988235;paint-order:markers fill stroke" d="m 52.068217,10.718787 h 10.46082 l -0.0493,2.28081 -3.61255,-0.05636 -0.61611,10.617176 -2.62301,-0.04304 0.55698,-10.528452 -4.11009,0.01536 z" id="path939-3"/>
          <path style="fill:#4792d0;fill-opacity:1;stroke:none;stroke-width:0.177376px;stroke-linecap:butt;stroke-linejoin:round;stroke-opacity:0.988235;paint-order:markers fill stroke" d="m 69.327107,10.335751 h 10.46083 l -0.0493,2.280809 -3.61254,-0.05636 -0.61612,10.617177 -2.62301,-0.04304 0.55698,-10.528451 -4.11008,0.01536 z" id="path939-1-5"/>
          <path id="path931-3-95" style="fill:#4792d0;fill-opacity:1;stroke:none;stroke-width:0.177655;stroke-linecap:round;stroke-linejoin:round;stroke-miterlimit:4;stroke-dasharray:none;stroke-opacity:0.988235;paint-order:markers fill stroke" d="m 84.733697,11.471639 a 5.7158541,5.7158541 0 0 0 -5.71241,5.715875 5.7158541,5.7158541 0 0 0 5.71553,5.715875 5.7158541,5.7158541 0 0 0 5.71588,-5.715875 5.7158541,5.7158541 0 0 0 -5.71588,-5.715875 5.7158541,5.7158541 0 0 0 -0.003,0 z m 0.003,2.813421 a 2.9022464,2.9022464 0 0 1 2.90246,2.902454 2.9022464,2.9022464 0 0 1 -2.90246,2.902109 2.9022464,2.9022464 0 0 1 -2.90211,-2.902109 2.9022464,2.9022464 0 0 1 2.90211,-2.902454 z"/>
          <path style="fill:#4792d0;fill-opacity:1;stroke:none;stroke-width:0.177376px;stroke-linecap:butt;stroke-linejoin:round;stroke-opacity:0.988235;paint-order:markers fill stroke" d="m 88.541217,10.343525 c 0.25044,-0.108373 1.98222,-1.440157 1.98222,-1.440157 l 4.01216,5.873851 3.43157,-4.674938 c 0,0 1.8528,1.327313 1.76489,1.414338 -0.0879,0.08703 -4.02399,5.651373 -4.02399,5.651373 l -0.0768,4.8636 -2.75261,-0.09421 0.13854,-5.097852 z" id="path1012-9"/>
          <path id="path19878-8" style="fill:none;fill-opacity:1;stroke:#195cb8;stroke-width:0.177655;stroke-linecap:butt;stroke-linejoin:round;stroke-miterlimit:4;stroke-dasharray:none;stroke-opacity:0.988235;paint-order:markers fill stroke" d="m 17.90666,11.241929 -4.992166,0.0066 -0.619085,12.241026 5.489305,0.05129 c 6.92002,0 6.002896,-12.29888 0.121946,-12.29888 z m -0.487438,2.90973 c 3.101248,0 3.584754,6.48081 -0.06444,6.48081 l -2.047792,-0.02702 0.326343,-6.450324 z"/>
          <path id="path19880-4" style="fill:none;fill-opacity:1;stroke:#195cb8;stroke-width:0.177655;stroke-linecap:round;stroke-linejoin:round;stroke-miterlimit:4;stroke-dasharray:none;stroke-opacity:0.988235;paint-order:markers fill stroke" d="m 29.115996,12.645002 a 5.7158541,5.7158541 0 0 0 -5.71241,5.715875 5.7158541,5.7158541 0 0 0 5.715528,5.715876 5.7158541,5.7158541 0 0 0 5.715875,-5.715876 5.7158541,5.7158541 0 0 0 -5.715875,-5.715875 5.7158541,5.7158541 0 0 0 -0.0032,0 z m 0.0032,2.813421 a 2.9022464,2.9022464 0 0 1 2.902454,2.902454 2.9022464,2.9022464 0 0 1 -2.902454,2.902109 2.9022464,2.9022464 0 0 1 -2.902109,-2.902109 2.9022464,2.9022464 0 0 1 2.902109,-2.902454 z"/>
          <path style="fill:none;fill-opacity:1;stroke:#195cb8;stroke-width:0.177376px;stroke-linecap:butt;stroke-linejoin:round;stroke-opacity:0.988235;paint-order:markers fill stroke" d="m 35.686447,22.799369 0.458116,-10.010446 2.710355,0.199558 5.761068,6.940397 0.356355,-8.924062 2.74499,0.187529 -0.613028,12.813239 -2.473771,-0.100312 -5.986316,-6.982273 -0.282805,5.876558 z" id="path19882-4"/>
          <path style="fill:none;fill-opacity:1;stroke:#195cb8;stroke-width:0.177376px;stroke-linecap:butt;stroke-linejoin:round;stroke-opacity:0.988235;paint-order:markers fill stroke" d="m 48.779564,9.1483878 1.666323,-0.029189 v 0.222446 l 0.75197,-0.018952 v 0.3856068 h 0.38595 l -0.17339,1.9660314 -0.53309,1.477846 -1.246987,-0.368446 0.457077,-0.946115 -1.356122,-0.158184 z" id="path19884-8"/>
          <path style="fill:none;fill-opacity:1;stroke:#195cb8;stroke-width:0.177376px;stroke-linecap:butt;stroke-linejoin:round;stroke-opacity:0.988235;paint-order:markers fill stroke" d="m 51.891007,10.542244 h 10.46083 l -0.0493,2.28081 -3.61254,-0.05636 -0.61612,10.617176 -2.62301,-0.04304 0.55698,-10.528452 -4.11008,0.01536 z" id="path19886-2"/>
          <path style="fill:none;fill-opacity:1;stroke:#195cb8;stroke-width:0.177376px;stroke-linecap:butt;stroke-linejoin:round;stroke-opacity:0.988235;paint-order:markers fill stroke" d="m 69.149897,10.159208 h 10.46083 l -0.0493,2.280809 -3.61255,-0.05636 -0.61612,10.617177 -2.62301,-0.04304 0.55698,-10.528451 -4.11008,0.01536 z" id="path19888-4"/>
          <path id="path19894-7" style="fill:none;fill-opacity:1;stroke:#195cb8;stroke-width:0.177655;stroke-linecap:round;stroke-linejoin:round;stroke-miterlimit:4;stroke-dasharray:none;stroke-opacity:0.988235;paint-order:markers fill stroke" d="m 84.556497,11.295096 a 5.7158541,5.7158541 0 0 0 -5.71242,5.715875 5.7158541,5.7158541 0 0 0 5.71553,5.715875 5.7158541,5.7158541 0 0 0 5.71588,-5.715875 5.7158541,5.7158541 0 0 0 -5.71588,-5.715875 5.7158541,5.7158541 0 0 0 -0.003,0 z m 0.003,2.813421 a 2.9022464,2.9022464 0 0 1 2.90245,2.902454 2.9022464,2.9022464 0 0 1 -2.90245,2.902109 2.9022464,2.9022464 0 0 1 -2.90211,-2.902109 2.9022464,2.9022464 0 0 1 2.90211,-2.902454 z"/>
          <path style="fill:none;fill-opacity:1;stroke:#195cb8;stroke-width:0.177376px;stroke-linecap:butt;stroke-linejoin:round;stroke-opacity:0.988235;paint-order:markers fill stroke" d="m 88.364007,10.166982 c 0.25044,-0.108373 1.98222,-1.440157 1.98222,-1.440157 l 4.01216,5.873851 3.43157,-4.6749378 c 0,0 1.8528,1.3273128 1.76489,1.4143378 -0.0879,0.08703 -4.02399,5.651373 -4.02399,5.651373 l -0.0768,4.8636 -2.7526,-0.09421 0.13853,-5.097852 z" id="path19896-9"/>
          <path style="display:inline;fill:#fff9a2;fill-opacity:1;stroke:none;stroke-width:0.134525;stroke-linecap:round;stroke-linejoin:round;paint-order:stroke fill markers" d="m 148.94084,11.444588 -10.44277,7.713224 0.48731,0.659392 -0.41961,0.310057 0.66869,0.905373 1.35341,-0.99994 0.45165,0.611333 1.36116,-1.005623 0.25321,0.342614 -1.36943,1.011309 0.6687,0.90537 1.53375,-1.132748 0.54881,0.743109 -0.52865,0.390155 0.66921,0.905888 0.34261,-0.253214 0.4129,0.559139 -0.9586,0.707966 0.66921,0.905889 1.00097,-0.739489 0.48473,0.656806 0.99839,-0.737422 0.44803,0.606681 3.34605,-2.471684 -0.66869,-0.90537 -0.99788,0.736907 -0.26458,-0.357603 0.82837,-0.611849 -0.56327,-0.762744 0.9586,-0.707966 -0.66869,-0.905373 -0.34262,0.253217 -0.49713,-0.672828 0.65733,-0.485243 -0.57103,-0.773078 0.45786,-0.337965 -0.6687,-0.90537 -1.00407,0.741556 -0.2527,-0.342099 1.96939,-1.45469 -0.45165,-0.610817 0.83664,-0.618048 -0.48782,-0.659909 0.41961,-0.309542 z" id="path5879"/>
          <path style="display:inline;fill:#fff9a2;fill-opacity:1;stroke:none;stroke-width:0.134525;stroke-linecap:round;stroke-linejoin:round;paint-order:stroke fill markers" d="m 109.21252,10.914388 -3.64216,2.690275 0.48318,0.653706 -1.08521,0.801502 0.6687,0.905888 0.68574,-0.506428 0.40773,0.551902 0.40979,-0.302823 0.44545,0.60203 -1.12551,0.831474 0.66869,0.905373 0.32453,-0.239779 0.45011,0.609264 -0.45011,0.332796 0.6687,0.905888 0.32762,-0.241845 0.60048,0.813388 -1.0821,0.798917 0.66921,0.90537 0.20257,-0.149344 0.60668,0.821655 0.27854,-0.205671 0.60616,0.820621 2.65824,-1.963187 0.64285,0.87023 0.4098,-0.302823 0.61805,0.836641 0.36277,-0.2682 0.64233,0.869715 0.68368,-0.504881 0.52659,0.713134 4.18527,-3.091283 0.48318,0.654225 0.26303,-0.194305 0.52813,0.715203 -0.68988,0.509529 0.66921,0.90537 0.39429,-0.291454 0.33383,0.451652 -0.83302,0.615465 0.66869,0.905373 4.13515,-3.054078 -0.4563,-0.617532 0.83302,-0.615468 -0.66921,-0.90537 -0.39429,0.291454 -0.48937,-0.662493 0.68936,-0.509529 -0.6687,-0.90537 -0.26251,0.193786 -0.39946,-0.540536 1.1746,-0.867648 -0.52658,-0.71365 0.0191,-0.01394 -0.64233,-0.869712 0.13952,-0.102838 -0.61805,-0.836642 0.80667,-0.595828 -0.64285,-0.870748 0.46405,-0.342615 -0.66869,-0.905888 -2.29134,1.692404 -0.60564,-0.820105 -0.76068,0.561722 -0.6072,-0.821655 -4.36976,3.227192 -0.63045,-0.853694 -3.70158,2.734202 -0.57361,-0.776182 0.4501,-0.33228 -0.66869,-0.905885 -0.32453,0.239776 -0.37879,-0.512631 1.12551,-0.831471 -0.66869,-0.905373 -0.41031,0.302824 -0.58188,-0.787548 -0.68574,0.506428 -0.22221,-0.300756 1.0852,-0.801501 z" id="path5877"/>
          <path style="display:inline;fill:#fff9a2;fill-opacity:1;stroke:none;stroke-width:0.134525;stroke-linecap:round;stroke-linejoin:round;paint-order:stroke fill markers" d="m 169.36957,10.820854 -2.91196,2.150772 -0.39326,-0.532267 -0.33073,0.24443 -0.55552,-0.752409 -1.79421,1.325501 -0.45475,-0.615467 -4.15944,3.072163 -0.28577,-0.386538 0.63562,-0.469222 -0.61908,-0.837676 0.58653,-0.433565 -0.6072,-0.822172 0.79426,-0.586527 -0.66869,-0.905371 -0.88935,0.656807 -0.56017,-0.758093 -0.40928,0.302307 -0.32453,-0.43925 -0.92863,0.685746 -0.52037,-0.704349 -1.47382,1.088305 0.5209,0.704867 -0.62425,0.460955 0.32401,0.438732 -1.7787,1.314132 0.66921,0.90537 0.88935,-0.656807 0.49816,0.674894 -0.79427,0.586528 0.61909,0.837674 -0.58653,0.433567 0.51986,0.703832 -0.63562,0.469222 0.4346,0.588077 -0.51108,0.37724 0.45476,0.615466 -1.10433,0.815969 0.66869,0.905373 0.33073,-0.24443 0.55553,0.752409 4.6333,-3.422013 0.39326,0.532265 0.24391,-0.18035 0.33797,0.457853 -0.18707,0.137978 0.66869,0.90537 0.84181,-0.621668 0.33125,0.448553 -0.80099,0.591693 0.6687,0.905373 0.56017,-0.41393 0.54777,0.741558 0.54622,-0.403593 0.47335,0.641305 3.18017,-2.349211 0.32143,0.435115 -0.74259,0.548804 0.66869,0.905372 0.76895,-0.567925 0.524,0.709517 1.24695,-0.920874 0.41444,0.560689 0.92708,-0.684713 0.42168,0.571027 -1.13016,0.834572 0.49971,0.676445 -0.50643,0.374139 0.66869,0.905886 1.14928,-0.849043 0.46923,0.635619 1.55132,-1.145664 0.4439,0.60048 0.78445,-0.579811 0.60048,0.812353 0.30851,-0.227891 0.32349,0.438214 -0.29042,0.214458 0.66921,0.905372 0.41858,-0.309025 0.31884,0.431498 1.64797,-1.21698 -0.31885,-0.432015 0.56121,-0.414445 -0.4594,-0.621668 0.29094,-0.214974 -0.53331,-0.721921 0.33177,-0.244946 -0.66921,-0.90537 -0.37001,0.273368 -0.59996,-0.812353 -1.55184,1.146183 -0.24392,-0.330729 1.05162,-0.776698 -0.49971,-0.67696 0.50643,-0.374137 -0.48059,-0.650608 1.13016,-0.834572 -0.66869,-0.905373 -0.92708,0.684713 -0.35553,-0.481108 1.05575,-0.779796 -0.66921,-0.905372 -0.76843,0.567925 -0.52452,-0.70952 -2.56677,1.89601 -0.32142,-0.435115 2.13733,-1.578716 -0.47335,-0.641305 1.73012,-1.277956 -0.54776,-0.741559 1.00717,-0.743623 -0.66869,-0.905371 -3.04271,2.247408 -0.33125,-0.448551 1.11931,-0.826824 -0.66869,-0.905371 -0.21342,0.157613 -0.44649,-0.60358 -0.93586,0.691431 z" id="path5875"/>
          <path style="display:inline;fill:#fff9a2;fill-opacity:1;stroke:none;stroke-width:0.134525;stroke-linecap:round;stroke-linejoin:round;paint-order:stroke fill markers" d="m 132.4943,10.321142 -2.37608,1.754932 -0.59169,-0.800985 -4.16254,3.07423 0.66869,0.905889 0.77463,-0.572059 0.5917,0.800987 1.4552,-1.07487 0.48111,0.651121 -0.81804,0.604099 0.57361,0.776179 -0.6997,0.516766 0.54002,0.730705 -0.59324,0.438214 0.56534,0.765847 -0.66663,0.492474 0.66869,0.905888 0.14677,-0.108518 0.27595,0.37362 -1.12241,0.82889 0.66869,0.905369 0.60513,-0.447 0.29455,0.398426 -1.31516,0.971515 0.66869,0.905373 0.46922,-0.34675 0.22325,0.302308 -0.0124,0.0093 0.66869,0.905886 3.36569,-2.486152 -0.50333,-0.681096 0.74879,-0.552937 -0.66869,-0.905372 -0.46974,0.346749 -0.26665,-0.361217 1.31516,-0.971518 -0.41651,-0.56379 2.39675,-1.770433 0.39171,0.530714 0.85111,-0.628901 0.39429,0.533302 -1.70222,1.257287 0.66869,0.90537 5.46272,-4.034896 -0.51418,-0.696598 0.0382,-0.02842 -0.54829,-0.742075 0.81236,-0.599964 -0.6687,-0.905886 -1.44384,1.066602 -0.2191,-0.296106 1.00097,-0.73949 -0.6687,-0.905888 -0.96118,0.710034 -0.44855,-0.607198 -0.95911,0.708484 -0.43719,-0.591179 0.59325,-0.438216 -0.66869,-0.905371 -3.69797,2.731616 -0.47956,-0.649056 0.81804,-0.604097 -0.57516,-0.778247 0.14625,-0.108004 z" id="path5873"/>
          <path style="fill:#4792d0;fill-opacity:1;stroke:none;stroke-width:0.177376px;stroke-linecap:butt;stroke-linejoin:round;stroke-opacity:0.988235;paint-order:markers fill stroke" d="m 126.24935,12.304304 h 10.46082 l -0.0493,2.280814 -3.61254,-0.05638 -0.5022,8.007452 -2.62302,-0.04304 0.44307,-7.918732 -4.11008,0.01535 z" id="path939-1-2-3"/>
          <path style="fill:#4792d0;fill-opacity:1;stroke:none;stroke-width:0.177376px;stroke-linecap:butt;stroke-linejoin:miter;stroke-opacity:0.988235" d="m 122.01583,12.628046 2.75959,0.168578 -0.37594,9.481294 -2.86744,-0.08487 z" id="path1054-9"/>
          <path style="fill:#4792d0;fill-opacity:1;stroke:none;stroke-width:0.177376px;stroke-linecap:butt;stroke-linejoin:miter;stroke-opacity:0.988235" d="m 107.11493,12.071931 c 0.19452,-0.06101 2.23423,-0.822786 2.23423,-0.822786 l 2.60374,7.410355 1.31088,-4.259452 h 1.9256 c 0,0 1.58776,3.603729 1.60741,3.392273 0.0196,-0.211457 1.88234,-5.914786 1.88234,-5.914786 l 2.43284,0.932229 -3.0924,9.393827 h -2.24865 l -1.26251,-3.082763 -1.2719,3.64756 h -2.63901 z" id="path1076-5"/>
          <path style="fill:#4792d0;fill-opacity:1;stroke:none;stroke-width:0.177376px;stroke-linecap:butt;stroke-linejoin:miter;stroke-opacity:0.988235" d="m 137.9671,12.15272 h 2.73553 l -0.20018,3.753356 h 5.11083 l 0.2806,-5.171596 2.72647,0.150377 -0.52455,12.360036 -2.76911,0.02112 0.23659,-5.188718 -5.11266,-0.05819 -0.27367,5.112017 h -2.92571 z" id="path1078-2"/>
          <path style="fill:#4792d0;fill-opacity:1;stroke:none;stroke-width:0.177376px;stroke-linecap:butt;stroke-linejoin:miter;stroke-opacity:0.988235" d="m 154.1782,23.593353 0.5866,-12.931866 h 2.63167 l 2.89527,5.344726 2.94959,-3.721518 h 2.80639 l -0.30332,9.907821 h -2.88244 l 0.21293,-5.100272 -1.5362,1.766405 h -2.24054 l -1.97453,-3.741913 -0.37305,8.489354 z" id="path1080-1"/>
          <path style="fill:#4792d0;fill-opacity:1;stroke:none;stroke-width:0.177376px;stroke-linecap:butt;stroke-linejoin:round;stroke-opacity:0.988235;paint-order:markers fill stroke" d="m 176.77138,21.186692 1.66631,-0.02916 v 0.222444 l 0.75198,-0.01897 v 0.385606 h 0.38595 l -0.17339,1.966029 -0.53309,1.477851 -1.24699,-0.36845 0.45708,-0.946113 -1.35612,-0.158187 z" id="path937-5-2"/>
          <path style="fill:#4792d0;fill-opacity:1;stroke:none;stroke-width:0.177376px;stroke-linecap:butt;stroke-linejoin:miter;stroke-opacity:0.988235" d="m 167.87847,11.55437 -0.60623,10.879449 h 8.21501 v -2.264328 h -5.34395 l 0.095,-2.215464 h 3.77105 l 0.0599,-2.21854 h -3.76187 l 0.12764,-1.793495 h 4.89396 v -2.350784 z" id="path1122-0"/>
          <path style="fill:none;fill-opacity:1;stroke:#195cb8;stroke-width:0.177376px;stroke-linecap:butt;stroke-linejoin:round;stroke-opacity:0.988235;paint-order:markers fill stroke" d="m 126.07214,12.127761 h 10.46082 l -0.0493,2.280814 -3.61254,-0.05638 -0.5022,8.007452 -2.62301,-0.04304 0.44306,-7.918732 -4.11008,0.01535 z" id="path19890-2"/>
          <path style="fill:none;fill-opacity:1;stroke:#195cb8;stroke-width:0.177376px;stroke-linecap:butt;stroke-linejoin:miter;stroke-opacity:0.988235" d="m 121.83862,12.451503 2.75959,0.168578 -0.37594,9.481294 -2.86744,-0.08487 z" id="path19902-9"/>
          <path style="fill:none;fill-opacity:1;stroke:#195cb8;stroke-width:0.177376px;stroke-linecap:butt;stroke-linejoin:miter;stroke-opacity:0.988235" d="m 106.93772,11.895388 c 0.19452,-0.06101 2.23423,-0.822786 2.23423,-0.822786 l 2.60374,7.410355 1.31088,-4.259452 h 1.9256 c 0,0 1.58776,3.603729 1.60741,3.392273 0.0196,-0.211457 1.88234,-5.914786 1.88234,-5.914786 l 2.43284,0.932229 -3.0924,9.393827 h -2.24865 l -1.26251,-3.082763 -1.2719,3.64756 h -2.63901 z" id="path19906-4"/>
          <path style="fill:none;fill-opacity:1;stroke:#195cb8;stroke-width:0.177376px;stroke-linecap:butt;stroke-linejoin:miter;stroke-opacity:0.988235" d="m 137.78989,11.976177 h 2.73554 l -0.20018,3.753356 h 5.11082 l 0.2806,-5.171596 2.72648,0.150377 -0.52456,12.360036 -2.7691,0.02112 0.23658,-5.188718 -5.11265,-0.05819 -0.27368,5.112017 h -2.92571 z" id="path19908-0"/>
          <path style="fill:none;fill-opacity:1;stroke:#195cb8;stroke-width:0.177376px;stroke-linecap:butt;stroke-linejoin:miter;stroke-opacity:0.988235" d="m 154.00099,23.41681 0.58661,-12.931866 h 2.63166 l 2.89528,5.344726 2.94958,-3.721518 h 2.8064 l -0.30332,9.907821 h -2.88245 l 0.21293,-5.100272 -1.5362,1.766405 h -2.24053 l -1.97453,-3.741913 -0.37305,8.489354 z" id="path19910-8"/>
          <path style="fill:none;fill-opacity:1;stroke:#195cb8;stroke-width:0.177376px;stroke-linecap:butt;stroke-linejoin:round;stroke-opacity:0.988235;paint-order:markers fill stroke" d="m 176.59417,21.010149 1.66632,-0.02916 v 0.222444 l 0.75197,-0.01897 v 0.385606 h 0.38595 l -0.17339,1.966029 -0.53309,1.477851 -1.24698,-0.36845 0.45707,-0.946113 -1.35612,-0.158187 z" id="path19914-5"/>
          <path style="fill:none;fill-opacity:1;stroke:#195cb8;stroke-width:0.177376px;stroke-linecap:butt;stroke-linejoin:miter;stroke-opacity:0.988235" d="m 167.70126,11.377827 -0.60623,10.879449 h 8.21501 v -2.264328 h -5.34395 l 0.095,-2.215464 h 3.77105 l 0.0599,-2.21854 h -3.76187 l 0.12763,-1.793495 h 4.89396 v -2.350784 z" id="path19916-9"/>
        </g>
        <g id="g12283">
          <circle style="fill:#1a5db8;fill-opacity:1;stroke:none;stroke-width:0.264999;stroke-linecap:round;stroke-linejoin:round;stroke-miterlimit:4;stroke-dasharray:none;stroke-opacity:1;paint-order:markers fill stroke" id="path1190-3-0" cx="9.3378944" cy="40.954052" r="0.26909018" transform="rotate(-1.6669842)"/>
          <circle style="fill:#1a5db8;fill-opacity:1;stroke:none;stroke-width:0.264999;stroke-linecap:round;stroke-linejoin:round;stroke-miterlimit:4;stroke-dasharray:none;stroke-opacity:1;paint-order:markers fill stroke" id="circle1282-3-6" cx="11.867409" cy="40.954052" r="0.26909018" transform="rotate(-1.6669842)"/>
          <circle style="fill:#1a5db8;fill-opacity:1;stroke:none;stroke-width:0.264999;stroke-linecap:round;stroke-linejoin:round;stroke-miterlimit:4;stroke-dasharray:none;stroke-opacity:1;paint-order:markers fill stroke" id="circle1284-3-4" cx="14.396931" cy="40.954052" r="0.26909018" transform="rotate(-1.6669842)"/>
          <circle style="fill:#1a5db8;fill-opacity:1;stroke:none;stroke-width:0.264999;stroke-linecap:round;stroke-linejoin:round;stroke-miterlimit:4;stroke-dasharray:none;stroke-opacity:1;paint-order:markers fill stroke" id="circle1286-86-6" cx="16.926441" cy="40.954052" r="0.26909018" transform="rotate(-1.6669842)"/>
          <circle style="fill:#1a5db8;fill-opacity:1;stroke:none;stroke-width:0.264999;stroke-linecap:round;stroke-linejoin:round;stroke-miterlimit:4;stroke-dasharray:none;stroke-opacity:1;paint-order:markers fill stroke" id="circle1296-0-2" cx="19.455959" cy="40.954052" r="0.26909018" transform="rotate(-1.6669842)"/>
          <circle style="fill:#1a5db8;fill-opacity:1;stroke:none;stroke-width:0.264999;stroke-linecap:round;stroke-linejoin:round;stroke-miterlimit:4;stroke-dasharray:none;stroke-opacity:1;paint-order:markers fill stroke" id="circle1298-4-5" cx="21.985477" cy="40.954052" r="0.26909018" transform="rotate(-1.6669842)"/>
          <circle style="fill:#1a5db8;fill-opacity:1;stroke:none;stroke-width:0.264999;stroke-linecap:round;stroke-linejoin:round;stroke-miterlimit:4;stroke-dasharray:none;stroke-opacity:1;paint-order:markers fill stroke" id="circle1300-8-8" cx="24.514988" cy="40.954052" r="0.26909018" transform="rotate(-1.6669842)"/>
          <circle style="fill:#1a5db8;fill-opacity:1;stroke:none;stroke-width:0.264999;stroke-linecap:round;stroke-linejoin:round;stroke-miterlimit:4;stroke-dasharray:none;stroke-opacity:1;paint-order:markers fill stroke" id="circle1306-8-6" cx="27.044498" cy="40.954052" r="0.26909018" transform="rotate(-1.6669842)"/>
          <circle style="fill:#1a5db8;fill-opacity:1;stroke:none;stroke-width:0.264999;stroke-linecap:round;stroke-linejoin:round;stroke-miterlimit:4;stroke-dasharray:none;stroke-opacity:1;paint-order:markers fill stroke" id="circle1308-8-2" cx="29.574009" cy="40.954052" r="0.26909018" transform="rotate(-1.6669842)"/>
          <circle style="fill:#1a5db8;fill-opacity:1;stroke:none;stroke-width:0.264999;stroke-linecap:round;stroke-linejoin:round;stroke-miterlimit:4;stroke-dasharray:none;stroke-opacity:1;paint-order:markers fill stroke" id="circle1310-9-8" cx="32.103527" cy="40.954052" r="0.26909018" transform="rotate(-1.6669842)"/>
          <circle style="fill:#1a5db8;fill-opacity:1;stroke:none;stroke-width:0.264999;stroke-linecap:round;stroke-linejoin:round;stroke-miterlimit:4;stroke-dasharray:none;stroke-opacity:1;paint-order:markers fill stroke" id="circle1316-7-4" cx="34.633038" cy="40.954052" r="0.26909018" transform="rotate(-1.6669842)"/>
          <circle style="fill:#1a5db8;fill-opacity:1;stroke:none;stroke-width:0.264999;stroke-linecap:round;stroke-linejoin:round;stroke-miterlimit:4;stroke-dasharray:none;stroke-opacity:1;paint-order:markers fill stroke" id="circle1318-7-7" cx="37.162548" cy="40.954052" r="0.26909018" transform="rotate(-1.6669842)"/>
          <circle style="fill:#1a5db8;fill-opacity:1;stroke:none;stroke-width:0.264999;stroke-linecap:round;stroke-linejoin:round;stroke-miterlimit:4;stroke-dasharray:none;stroke-opacity:1;paint-order:markers fill stroke" id="circle1320-6-2" cx="39.692066" cy="40.954052" r="0.26909018" transform="rotate(-1.6669842)"/>
          <circle style="fill:#1a5db8;fill-opacity:1;stroke:none;stroke-width:0.264999;stroke-linecap:round;stroke-linejoin:round;stroke-miterlimit:4;stroke-dasharray:none;stroke-opacity:1;paint-order:markers fill stroke" id="circle1357-43-4" cx="42.221577" cy="40.954052" r="0.26909018" transform="rotate(-1.6669842)"/>
          <circle style="fill:#1a5db8;fill-opacity:1;stroke:none;stroke-width:0.264999;stroke-linecap:round;stroke-linejoin:round;stroke-miterlimit:4;stroke-dasharray:none;stroke-opacity:1;paint-order:markers fill stroke" id="circle1359-0-0" cx="44.751087" cy="40.954052" r="0.26909018" transform="rotate(-1.6669842)"/>
          <circle style="fill:#1a5db8;fill-opacity:1;stroke:none;stroke-width:0.264999;stroke-linecap:round;stroke-linejoin:round;stroke-miterlimit:4;stroke-dasharray:none;stroke-opacity:1;paint-order:markers fill stroke" id="circle1361-3-6" cx="47.280605" cy="40.954052" r="0.26909018" transform="rotate(-1.6669842)"/>
          <circle style="fill:#1a5db8;fill-opacity:1;stroke:none;stroke-width:0.264999;stroke-linecap:round;stroke-linejoin:round;stroke-miterlimit:4;stroke-dasharray:none;stroke-opacity:1;paint-order:markers fill stroke" id="circle1363-0-2" cx="49.810116" cy="40.954052" r="0.26909018" transform="rotate(-1.6669842)"/>
          <circle style="fill:#1a5db8;fill-opacity:1;stroke:none;stroke-width:0.264999;stroke-linecap:round;stroke-linejoin:round;stroke-miterlimit:4;stroke-dasharray:none;stroke-opacity:1;paint-order:markers fill stroke" id="circle1365-9-9" cx="52.33963" cy="40.954052" r="0.26909018" transform="rotate(-1.6669842)"/>
          <circle style="fill:#1a5db8;fill-opacity:1;stroke:none;stroke-width:0.264999;stroke-linecap:round;stroke-linejoin:round;stroke-miterlimit:4;stroke-dasharray:none;stroke-opacity:1;paint-order:markers fill stroke" id="circle1367-2-9" cx="54.869148" cy="40.954052" r="0.26909018" transform="rotate(-1.6669842)"/>
          <circle style="fill:#1a5db8;fill-opacity:1;stroke:none;stroke-width:0.264999;stroke-linecap:round;stroke-linejoin:round;stroke-miterlimit:4;stroke-dasharray:none;stroke-opacity:1;paint-order:markers fill stroke" id="circle1369-54-0" cx="57.398659" cy="40.954052" r="0.26909018" transform="rotate(-1.6669842)"/>
          <circle style="fill:#1a5db8;fill-opacity:1;stroke:none;stroke-width:0.264999;stroke-linecap:round;stroke-linejoin:round;stroke-miterlimit:4;stroke-dasharray:none;stroke-opacity:1;paint-order:markers fill stroke" id="circle1371-0-8" cx="59.928169" cy="40.954052" r="0.26909018" transform="rotate(-1.6669842)"/>
          <circle style="fill:#1a5db8;fill-opacity:1;stroke:none;stroke-width:0.264999;stroke-linecap:round;stroke-linejoin:round;stroke-miterlimit:4;stroke-dasharray:none;stroke-opacity:1;paint-order:markers fill stroke" id="circle1373-5-1" cx="62.457687" cy="40.954052" r="0.26909018" transform="rotate(-1.6669842)"/>
          <circle style="fill:#1a5db8;fill-opacity:1;stroke:none;stroke-width:0.264999;stroke-linecap:round;stroke-linejoin:round;stroke-miterlimit:4;stroke-dasharray:none;stroke-opacity:1;paint-order:markers fill stroke" id="circle1375-9-3" cx="64.987198" cy="40.954052" r="0.26909018" transform="rotate(-1.6669842)"/>
          <circle style="fill:#1a5db8;fill-opacity:1;stroke:none;stroke-width:0.264999;stroke-linecap:round;stroke-linejoin:round;stroke-miterlimit:4;stroke-dasharray:none;stroke-opacity:1;paint-order:markers fill stroke" id="circle1377-4-1" cx="67.516708" cy="40.954052" r="0.26909018" transform="rotate(-1.6669842)"/>
          <circle style="fill:#1a5db8;fill-opacity:1;stroke:none;stroke-width:0.264999;stroke-linecap:round;stroke-linejoin:round;stroke-miterlimit:4;stroke-dasharray:none;stroke-opacity:1;paint-order:markers fill stroke" id="circle1379-6-1" cx="70.046227" cy="40.954052" r="0.26909018" transform="rotate(-1.6669842)"/>
          <circle style="fill:#1a5db8;fill-opacity:1;stroke:none;stroke-width:0.264999;stroke-linecap:round;stroke-linejoin:round;stroke-miterlimit:4;stroke-dasharray:none;stroke-opacity:1;paint-order:markers fill stroke" id="circle1385-9-0" cx="72.575737" cy="40.954052" r="0.26909018" transform="rotate(-1.6669842)"/>
          <circle style="fill:#1a5db8;fill-opacity:1;stroke:none;stroke-width:0.264999;stroke-linecap:round;stroke-linejoin:round;stroke-miterlimit:4;stroke-dasharray:none;stroke-opacity:1;paint-order:markers fill stroke" id="circle1387-2-3" cx="75.105247" cy="40.954052" r="0.26909018" transform="rotate(-1.6669842)"/>
          <circle style="fill:#1a5db8;fill-opacity:1;stroke:none;stroke-width:0.264999;stroke-linecap:round;stroke-linejoin:round;stroke-miterlimit:4;stroke-dasharray:none;stroke-opacity:1;paint-order:markers fill stroke" id="circle1389-2-4" cx="77.634766" cy="40.954052" r="0.26909018" transform="rotate(-1.6669842)"/>
          <circle style="fill:#1a5db8;fill-opacity:1;stroke:none;stroke-width:0.264999;stroke-linecap:round;stroke-linejoin:round;stroke-miterlimit:4;stroke-dasharray:none;stroke-opacity:1;paint-order:markers fill stroke" id="circle1391-47-0" cx="80.164268" cy="40.954052" r="0.26909018" transform="rotate(-1.6669842)"/>
          <circle style="fill:#1a5db8;fill-opacity:1;stroke:none;stroke-width:0.264999;stroke-linecap:round;stroke-linejoin:round;stroke-miterlimit:4;stroke-dasharray:none;stroke-opacity:1;paint-order:markers fill stroke" id="circle1393-7-3" cx="82.693794" cy="40.954052" r="0.26909018" transform="rotate(-1.6669842)"/>
          <circle style="fill:#1a5db8;fill-opacity:1;stroke:none;stroke-width:0.264999;stroke-linecap:round;stroke-linejoin:round;stroke-miterlimit:4;stroke-dasharray:none;stroke-opacity:1;paint-order:markers fill stroke" id="circle1395-5-9" cx="85.223297" cy="40.954052" r="0.26909018" transform="rotate(-1.6669842)"/>
          <circle style="fill:#1a5db8;fill-opacity:1;stroke:none;stroke-width:0.264999;stroke-linecap:round;stroke-linejoin:round;stroke-miterlimit:4;stroke-dasharray:none;stroke-opacity:1;paint-order:markers fill stroke" id="circle1397-4-1" cx="87.752808" cy="40.954052" r="0.26909018" transform="rotate(-1.6669842)"/>
          <circle style="fill:#1a5db8;fill-opacity:1;stroke:none;stroke-width:0.264999;stroke-linecap:round;stroke-linejoin:round;stroke-miterlimit:4;stroke-dasharray:none;stroke-opacity:1;paint-order:markers fill stroke" id="circle1399-8-9" cx="90.282318" cy="40.954052" r="0.26909018" transform="rotate(-1.6669842)"/>
          <circle style="fill:#1a5db8;fill-opacity:1;stroke:none;stroke-width:0.264999;stroke-linecap:round;stroke-linejoin:round;stroke-miterlimit:4;stroke-dasharray:none;stroke-opacity:1;paint-order:markers fill stroke" id="circle1401-1-6" cx="92.811829" cy="40.954052" r="0.26909018" transform="rotate(-1.6669842)"/>
          <circle style="fill:#1a5db8;fill-opacity:1;stroke:none;stroke-width:0.264999;stroke-linecap:round;stroke-linejoin:round;stroke-miterlimit:4;stroke-dasharray:none;stroke-opacity:1;paint-order:markers fill stroke" id="circle1403-2-9" cx="95.341339" cy="40.954052" r="0.26909018" transform="rotate(-1.6669842)"/>
          <circle style="fill:#1a5db8;fill-opacity:1;stroke:none;stroke-width:0.264999;stroke-linecap:round;stroke-linejoin:round;stroke-miterlimit:4;stroke-dasharray:none;stroke-opacity:1;paint-order:markers fill stroke" id="circle1405-8-3" cx="97.870865" cy="40.954052" r="0.26909018" transform="rotate(-1.6669842)"/>
          <circle style="fill:#1a5db8;fill-opacity:1;stroke:none;stroke-width:0.264999;stroke-linecap:round;stroke-linejoin:round;stroke-miterlimit:4;stroke-dasharray:none;stroke-opacity:1;paint-order:markers fill stroke" id="circle1407-9-3" cx="100.40038" cy="40.954052" r="0.26909018" transform="rotate(-1.6669842)"/>
          <circle style="fill:#1a5db8;fill-opacity:1;stroke:none;stroke-width:0.264999;stroke-linecap:round;stroke-linejoin:round;stroke-miterlimit:4;stroke-dasharray:none;stroke-opacity:1;paint-order:markers fill stroke" id="circle1413-3-8" cx="102.92989" cy="40.954052" r="0.26909018" transform="rotate(-1.6669842)"/>
          <circle style="fill:#1a5db8;fill-opacity:1;stroke:none;stroke-width:0.264999;stroke-linecap:round;stroke-linejoin:round;stroke-miterlimit:4;stroke-dasharray:none;stroke-opacity:1;paint-order:markers fill stroke" id="circle1415-6-0" cx="105.4594" cy="40.954052" r="0.26909018" transform="rotate(-1.6669842)"/>
          <circle style="fill:#1a5db8;fill-opacity:1;stroke:none;stroke-width:0.264999;stroke-linecap:round;stroke-linejoin:round;stroke-miterlimit:4;stroke-dasharray:none;stroke-opacity:1;paint-order:markers fill stroke" id="circle1417-8-5" cx="107.98891" cy="40.954052" r="0.26909018" transform="rotate(-1.6669842)"/>
          <circle style="fill:#1a5db8;fill-opacity:1;stroke:none;stroke-width:0.264999;stroke-linecap:round;stroke-linejoin:round;stroke-miterlimit:4;stroke-dasharray:none;stroke-opacity:1;paint-order:markers fill stroke" id="circle1419-0-6" cx="110.51842" cy="40.954052" r="0.26909018" transform="rotate(-1.6669842)"/>
          <circle style="fill:#1a5db8;fill-opacity:1;stroke:none;stroke-width:0.264999;stroke-linecap:round;stroke-linejoin:round;stroke-miterlimit:4;stroke-dasharray:none;stroke-opacity:1;paint-order:markers fill stroke" id="circle1421-2-6" cx="113.04793" cy="40.954052" r="0.26909018" transform="rotate(-1.6669842)"/>
          <circle style="fill:#1a5db8;fill-opacity:1;stroke:none;stroke-width:0.264999;stroke-linecap:round;stroke-linejoin:round;stroke-miterlimit:4;stroke-dasharray:none;stroke-opacity:1;paint-order:markers fill stroke" id="circle1423-1-4" cx="115.57745" cy="40.954052" r="0.26909018" transform="rotate(-1.6669842)"/>
          <circle style="fill:#1a5db8;fill-opacity:1;stroke:none;stroke-width:0.264999;stroke-linecap:round;stroke-linejoin:round;stroke-miterlimit:4;stroke-dasharray:none;stroke-opacity:1;paint-order:markers fill stroke" id="circle1425-0-0" cx="118.10696" cy="40.954052" r="0.26909018" transform="rotate(-1.6669842)"/>
          <circle style="fill:#1a5db8;fill-opacity:1;stroke:none;stroke-width:0.264999;stroke-linecap:round;stroke-linejoin:round;stroke-miterlimit:4;stroke-dasharray:none;stroke-opacity:1;paint-order:markers fill stroke" id="circle1427-5-0" cx="120.63647" cy="40.954052" r="0.26909018" transform="rotate(-1.6669842)"/>
          <circle style="fill:#1a5db8;fill-opacity:1;stroke:none;stroke-width:0.264999;stroke-linecap:round;stroke-linejoin:round;stroke-miterlimit:4;stroke-dasharray:none;stroke-opacity:1;paint-order:markers fill stroke" id="circle1429-1-4" cx="123.16599" cy="40.954052" r="0.26909018" transform="rotate(-1.6669842)"/>
          <circle style="fill:#1a5db8;fill-opacity:1;stroke:none;stroke-width:0.264999;stroke-linecap:round;stroke-linejoin:round;stroke-miterlimit:4;stroke-dasharray:none;stroke-opacity:1;paint-order:markers fill stroke" id="circle1431-1-6" cx="125.6955" cy="40.954052" r="0.26909018" transform="rotate(-1.6669842)"/>
          <circle style="fill:#1a5db8;fill-opacity:1;stroke:none;stroke-width:0.264999;stroke-linecap:round;stroke-linejoin:round;stroke-miterlimit:4;stroke-dasharray:none;stroke-opacity:1;paint-order:markers fill stroke" id="circle1433-0-2" cx="128.22501" cy="40.954052" r="0.26909018" transform="rotate(-1.6669842)"/>
          <circle style="fill:#1a5db8;fill-opacity:1;stroke:none;stroke-width:0.264999;stroke-linecap:round;stroke-linejoin:round;stroke-miterlimit:4;stroke-dasharray:none;stroke-opacity:1;paint-order:markers fill stroke" id="circle1435-8-6" cx="130.75453" cy="40.954052" r="0.26909018" transform="rotate(-1.6669842)"/>
          <circle style="fill:#1a5db8;fill-opacity:1;stroke:none;stroke-width:0.264999;stroke-linecap:round;stroke-linejoin:round;stroke-miterlimit:4;stroke-dasharray:none;stroke-opacity:1;paint-order:markers fill stroke" id="circle11216-7" cx="133.2834" cy="40.954052" r="0.26909018" transform="rotate(-1.6669842)"/>
          <circle style="fill:#1a5db8;fill-opacity:1;stroke:none;stroke-width:0.264999;stroke-linecap:round;stroke-linejoin:round;stroke-miterlimit:4;stroke-dasharray:none;stroke-opacity:1;paint-order:markers fill stroke" id="circle11218-5" cx="135.81293" cy="40.954052" r="0.26909018" transform="rotate(-1.6669842)"/>
          <circle style="fill:#1a5db8;fill-opacity:1;stroke:none;stroke-width:0.264999;stroke-linecap:round;stroke-linejoin:round;stroke-miterlimit:4;stroke-dasharray:none;stroke-opacity:1;paint-order:markers fill stroke" id="circle11220-6" cx="138.34244" cy="40.954052" r="0.26909018" transform="rotate(-1.6669842)"/>
          <circle style="fill:#1a5db8;fill-opacity:1;stroke:none;stroke-width:0.264999;stroke-linecap:round;stroke-linejoin:round;stroke-miterlimit:4;stroke-dasharray:none;stroke-opacity:1;paint-order:markers fill stroke" id="circle11222-9" cx="140.87195" cy="40.954052" r="0.26909018" transform="rotate(-1.6669842)"/>
          <circle style="fill:#1a5db8;fill-opacity:1;stroke:none;stroke-width:0.264999;stroke-linecap:round;stroke-linejoin:round;stroke-miterlimit:4;stroke-dasharray:none;stroke-opacity:1;paint-order:markers fill stroke" id="circle11224-8" cx="143.40147" cy="40.954052" r="0.26909018" transform="rotate(-1.6669842)"/>
          <circle style="fill:#1a5db8;fill-opacity:1;stroke:none;stroke-width:0.264999;stroke-linecap:round;stroke-linejoin:round;stroke-miterlimit:4;stroke-dasharray:none;stroke-opacity:1;paint-order:markers fill stroke" id="circle11226-7" cx="145.93098" cy="40.954052" r="0.26909018" transform="rotate(-1.6669842)"/>
          <circle style="fill:#1a5db8;fill-opacity:1;stroke:none;stroke-width:0.264999;stroke-linecap:round;stroke-linejoin:round;stroke-miterlimit:4;stroke-dasharray:none;stroke-opacity:1;paint-order:markers fill stroke" id="circle11228-2" cx="148.46049" cy="40.954052" r="0.26909018" transform="rotate(-1.6669842)"/>
          <circle style="fill:#1a5db8;fill-opacity:1;stroke:none;stroke-width:0.264999;stroke-linecap:round;stroke-linejoin:round;stroke-miterlimit:4;stroke-dasharray:none;stroke-opacity:1;paint-order:markers fill stroke" id="circle11230-8" cx="150.99001" cy="40.954052" r="0.26909018" transform="rotate(-1.6669842)"/>
          <circle style="fill:#1a5db8;fill-opacity:1;stroke:none;stroke-width:0.264999;stroke-linecap:round;stroke-linejoin:round;stroke-miterlimit:4;stroke-dasharray:none;stroke-opacity:1;paint-order:markers fill stroke" id="circle11232-2" cx="153.51952" cy="40.954052" r="0.26909018" transform="rotate(-1.6669842)"/>
          <circle style="fill:#1a5db8;fill-opacity:1;stroke:none;stroke-width:0.264999;stroke-linecap:round;stroke-linejoin:round;stroke-miterlimit:4;stroke-dasharray:none;stroke-opacity:1;paint-order:markers fill stroke" id="circle11234-9" cx="156.04903" cy="40.954052" r="0.26909018" transform="rotate(-1.6669842)"/>
          <circle style="fill:#1a5db8;fill-opacity:1;stroke:none;stroke-width:0.264999;stroke-linecap:round;stroke-linejoin:round;stroke-miterlimit:4;stroke-dasharray:none;stroke-opacity:1;paint-order:markers fill stroke" id="circle11236-9" cx="158.57854" cy="40.954052" r="0.26909018" transform="rotate(-1.6669842)"/>
          <circle style="fill:#1a5db8;fill-opacity:1;stroke:none;stroke-width:0.264999;stroke-linecap:round;stroke-linejoin:round;stroke-miterlimit:4;stroke-dasharray:none;stroke-opacity:1;paint-order:markers fill stroke" id="circle11238-6" cx="161.10806" cy="40.954052" r="0.26909018" transform="rotate(-1.6669842)"/>
          <circle style="fill:#1a5db8;fill-opacity:1;stroke:none;stroke-width:0.264999;stroke-linecap:round;stroke-linejoin:round;stroke-miterlimit:4;stroke-dasharray:none;stroke-opacity:1;paint-order:markers fill stroke" id="circle11240-0" cx="163.63757" cy="40.954052" r="0.26909018" transform="rotate(-1.6669842)"/>
          <circle style="fill:#1a5db8;fill-opacity:1;stroke:none;stroke-width:0.264999;stroke-linecap:round;stroke-linejoin:round;stroke-miterlimit:4;stroke-dasharray:none;stroke-opacity:1;paint-order:markers fill stroke" id="circle11242-2" cx="166.16708" cy="40.954052" r="0.26909018" transform="rotate(-1.6669842)"/>
          <circle style="fill:#1a5db8;fill-opacity:1;stroke:none;stroke-width:0.264999;stroke-linecap:round;stroke-linejoin:round;stroke-miterlimit:4;stroke-dasharray:none;stroke-opacity:1;paint-order:markers fill stroke" id="circle11244-7" cx="168.69659" cy="40.954052" r="0.26909018" transform="rotate(-1.6669842)"/>
          <circle style="fill:#1a5db8;fill-opacity:1;stroke:none;stroke-width:0.264999;stroke-linecap:round;stroke-linejoin:round;stroke-miterlimit:4;stroke-dasharray:none;stroke-opacity:1;paint-order:markers fill stroke" id="circle11246-6" cx="171.2261" cy="40.954052" r="0.26909018" transform="rotate(-1.6669842)"/>
          <circle style="fill:#1a5db8;fill-opacity:1;stroke:none;stroke-width:0.264999;stroke-linecap:round;stroke-linejoin:round;stroke-miterlimit:4;stroke-dasharray:none;stroke-opacity:1;paint-order:markers fill stroke" id="circle11248-1" cx="173.75562" cy="40.954052" r="0.26909018" transform="rotate(-1.6669842)"/>
          <circle style="fill:#1a5db8;fill-opacity:1;stroke:none;stroke-width:0.264999;stroke-linecap:round;stroke-linejoin:round;stroke-miterlimit:4;stroke-dasharray:none;stroke-opacity:1;paint-order:markers fill stroke" id="circle11250-3" cx="176.28514" cy="40.954052" r="0.26909018" transform="rotate(-1.6669842)"/>
          <circle style="fill:#1a5db8;fill-opacity:1;stroke:none;stroke-width:0.264999;stroke-linecap:round;stroke-linejoin:round;stroke-miterlimit:4;stroke-dasharray:none;stroke-opacity:1;paint-order:markers fill stroke" id="circle11252-2" cx="178.81465" cy="40.954052" r="0.26909018" transform="rotate(-1.6669842)"/>
          <circle style="fill:#1a5db8;fill-opacity:1;stroke:none;stroke-width:0.264999;stroke-linecap:round;stroke-linejoin:round;stroke-miterlimit:4;stroke-dasharray:none;stroke-opacity:1;paint-order:markers fill stroke" id="circle11254-1" cx="181.34416" cy="40.954052" r="0.26909018" transform="rotate(-1.6669842)"/>
          <circle style="fill:#1a5db8;fill-opacity:1;stroke:none;stroke-width:0.264999;stroke-linecap:round;stroke-linejoin:round;stroke-miterlimit:4;stroke-dasharray:none;stroke-opacity:1;paint-order:markers fill stroke" id="circle11256-5" cx="183.87367" cy="40.954052" r="0.26909018" transform="rotate(-1.6669842)"/>
          <circle style="fill:#1a5db8;fill-opacity:1;stroke:none;stroke-width:0.264999;stroke-linecap:round;stroke-linejoin:round;stroke-miterlimit:4;stroke-dasharray:none;stroke-opacity:1;paint-order:markers fill stroke" id="circle11258-9" cx="186.40318" cy="40.954052" r="0.26909018" transform="rotate(-1.6669842)"/>
        </g>
      </g>
      <g id="g12537" transform="translate(1.1883687,-3.2133941)">
        <g id="g6701" transform="matrix(1.2217199,0,0,1.2217199,-4.7607701,-6.7678643)">
          <g id="g6623" transform="translate(-1.421018,0.68565655)">
            <path style="display:inline;fill:#fff9a2;fill-opacity:1;stroke:none;stroke-width:0.134525;stroke-linecap:round;stroke-linejoin:round;paint-order:stroke fill markers" d="m 77.320987,54.445698 -3.127976,2.310453 0.565857,0.765847 -1.010275,0.746207 0.303343,0.410311 -0.208773,0.154511 0.668693,0.905373 3.127975,-2.310453 -0.303342,-0.410829 1.088821,-0.804085 -0.565856,-0.765844 0.130225,-0.09612 z" id="path5889"/>
            <path style="display:inline;fill:#fff9a2;fill-opacity:1;stroke:none;stroke-width:0.134525;stroke-linecap:round;stroke-linejoin:round;paint-order:stroke fill markers" d="m 142.7294,45.25918 -6.8399,5.051888 -0.58084,-0.786517 -3.99045,2.947107 -0.50333,-0.682128 -1.1405,0.842325 -0.55087,-0.745691 -0.16123,0.118856 -0.21032,-0.284736 5.41104,-3.996656 -0.6687,-0.90537 -0.73277,0.541052 -0.50591,-0.685229 -0.59738,0.441315 -0.5116,-0.692981 -1.20199,0.887801 -0.22324,-0.302823 1.0573,-0.780831 -0.6687,-0.905372 -6.55722,4.843116 0.58033,0.785998 -1.0573,0.780833 0.31212,0.421679 -1.13688,0.83974 0.66921,0.905889 0.59738,-0.441317 0.34882,0.472323 -0.6842,0.505397 0.49764,0.673859 -0.80822,0.596863 0.38138,0.516247 -0.8475,0.626319 0.6687,0.905373 0.54622,-0.403596 0.38602,0.522968 -0.15296,0.112654 -0.74414,0.54932 0.66869,0.905888 0.74414,-0.549838 2.57762,-1.903759 0.47543,0.643887 -0.6749,0.498679 0.66921,0.90537 0.32401,-0.23926 0.6351,0.859895 0.74725,-0.551905 0.54673,0.740524 0.88367,-0.652674 0.47284,0.640271 0.73587,-0.543635 0.48628,0.658874 2.92695,-2.162141 -0.48628,-0.65836 1.10536,-0.816486 -0.47283,-0.64027 2.10271,-1.553395 0.37827,0.51263 -0.41703,0.307991 0.44494,0.60203 -0.69247,0.511598 0.52503,0.711068 -1.4459,1.067634 0.57464,0.777732 -0.7767,0.573608 0.66869,0.90537 3.46646,-2.560566 0.21291,0.288354 -1.22525,0.904853 0.66869,0.905889 1.01389,-0.749308 0.60772,0.823206 0.73587,-0.543637 0.48627,0.658874 1.73582,-1.282092 0.38189,0.517282 2.60811,-1.926498 -0.38189,-0.517281 0.42426,-0.313677 -0.66921,-0.90537 -0.73535,0.543118 -0.4868,-0.658357 -0.31471,0.232545 -0.46663,-0.632002 0.13384,-0.0987 -0.35347,-0.479042 0.89452,-0.660939 0.65784,0.890383 1.4056,-1.03818 0.41031,0.556038 0.90486,-0.668176 0.59944,0.811321 -0.32401,0.239263 0.56327,0.762743 -1.39423,1.029912 0.58136,0.787032 -0.50849,0.375171 -0.74414,0.549836 0.66869,0.905373 0.8971,-0.661977 0.38551,0.522449 -0.5457,0.403077 0.66869,0.905372 0.84749,-0.626319 0.38138,0.516763 0.80821,-0.596863 0.49765,0.673346 0.68419,-0.505396 0.50643,0.685228 4.43694,-3.276801 -0.50643,-0.685747 2.28255,-1.685684 -0.49765,-0.673862 0.53899,-0.39791 -0.38137,-0.516763 0.29559,-0.218075 -0.6687,-0.90537 -2.41794,1.785938 -0.55087,-0.74621 -2.11821,1.564246 -0.416,-0.563271 3.32176,-2.453082 -0.56327,-0.762744 2.01848,-1.490866 -0.6351,-0.860412 0.0289,-0.02119 -0.6687,-0.90537 -0.3886,0.286803 -0.63304,-0.85731 -1.92185,1.41955 -0.41031,-0.555522 -0.91622,0.676963 -0.65784,-0.890386 -2.75745,2.036569 -0.57413,-0.777729 -2.0345,1.502748 -0.52503,-0.711067 -2.04691,1.512054 -0.44493,-0.602549 -1.38131,1.020609 -0.37879,-0.51263 0.25166,-0.185518 -0.54673,-0.740524 0.65525,-0.484206 -0.6351,-0.859896 2.01745,-1.489832 -0.56328,-0.762746 0.26562,-0.196368 z" id="path5887"/>
            <path style="display:inline;fill:#fff9a2;fill-opacity:1;stroke:none;stroke-width:0.134525;stroke-linecap:round;stroke-linejoin:round;paint-order:stroke fill markers" d="m 84.818721,44.758434 -5.505091,4.065903 -0.397393,-0.53847 0.651639,-0.481107 -0.668692,-0.905889 -0.790649,0.583946 -0.400492,-0.542086 0.583944,-0.430982 -0.669211,-0.905889 -0.648023,0.479042 -0.526065,-0.712103 -1.108975,0.819074 -0.55294,-0.748276 -3.845758,2.840654 -0.539504,-0.730705 0.689364,-0.509014 -0.559139,-0.75706 0.425815,-0.314709 -0.66921,-0.90537 -0.80667,0.595829 -0.31936,-0.431498 -1.428853,1.055748 -0.511596,-0.691946 -2.858741,2.111499 0.51108,0.691946 -1.136364,0.839743 0.668692,0.905372 2.698028,-1.992643 0.209288,0.283186 -3.180168,2.349212 0.585494,0.792715 -0.689364,0.509014 0.622702,0.843359 -0.324011,0.23926 0.552421,0.748792 -0.341583,0.252183 0.526585,0.712099 -0.524516,0.387575 0.496094,0.671793 -1.144116,0.84491 0.57309,0.775663 -0.710033,0.524515 0.66921,0.905373 7.099824,-5.244127 0.397391,0.53847 -1.825728,1.348756 0.668695,0.905369 0.301789,-0.222723 0.470773,0.637685 3.928441,-2.901632 0.558622,0.756544 6.255433,-4.620906 0.39791,0.538467 -2.377118,1.75545 0.600999,0.813903 -0.620636,0.45837 0.531752,0.719851 -0.689364,0.509532 0.497644,0.67386 -3.740856,2.763139 0.668692,0.905372 0.789617,-0.583427 0.577225,0.781865 3.499528,-2.584858 0.578776,0.783416 0.890902,-0.657842 0.460436,0.623737 -0.41031,0.302823 0.668692,0.905886 0.790651,-0.583943 0.562756,0.761711 0.471289,-0.3483 0.593762,0.804088 1.221632,-0.902272 0.606681,0.821656 1.743046,-1.287262 0.53485,0.723472 2.803446,-2.070675 0.394808,0.534334 -1.627806,1.202511 0.668692,0.905372 0.943612,-0.697116 0.463537,0.626835 3.176035,-2.346111 0.439766,0.595312 2.133204,-1.575615 0.58704,0.794785 2.32079,-1.714106 0.5855,0.7922 0.56637,-0.418063 0.40721,0.551386 -0.70332,0.519867 0.75913,1.027843 0.48318,-0.357085 0.57464,0.777732 1.13068,-0.835093 0.51934,0.702802 -0.51314,0.378788 0.66869,0.905886 0.98289,-0.726054 0.54312,0.735356 0.52245,-0.386021 0.50539,0.684194 2.24534,-1.658814 -0.50539,-0.684196 0.52451,-0.387057 -0.54312,-0.735353 0.71727,-0.529686 -0.6289,-0.851627 0.51315,-0.378788 -0.55914,-0.757061 2.1239,-1.568894 0.44493,0.60203 -0.59324,0.438216 0.56585,0.765845 -0.66662,0.492477 0.66869,0.905369 0.14625,-0.108003 0.27595,0.373621 -1.1219,0.828374 0.66869,0.905888 0.60462,-0.447003 0.29455,0.398944 -1.31464,0.971 0.66869,0.90537 0.46922,-0.346747 0.22324,0.302305 -0.0124,0.0093 0.6687,0.90537 0.71417,-0.527617 0.4408,0.596863 2.23552,-1.651576 -0.4408,-0.596347 0.41599,-0.306959 -0.50333,-0.681094 0.7488,-0.552939 -0.66921,-0.905888 -0.46922,0.346749 -0.26666,-0.361217 1.31465,-0.971002 -0.41651,-0.56379 3.06338,-2.26291 -0.49609,-0.671277 0.51934,-0.38344 -0.44855,-0.607197 1.24696,-0.921391 -0.56586,-0.765844 0.66662,-0.492477 -0.54002,-0.730705 0.59325,-0.438216 -0.66869,-0.905888 -3.69848,2.731616 -0.47905,-0.648539 0.81804,-0.604096 -0.57516,-0.778764 0.14625,-0.108006 -0.6687,-0.90537 -2.37556,1.754931 -0.5917,-0.800983 -4.62142,3.413228 -0.50333,-0.681612 0.23771,-0.175702 -0.66869,-0.905885 -0.38034,0.281119 -0.43976,-0.595831 -0.10801,0.0801 -0.27492,-0.372589 0.83251,-0.614949 -0.66921,-0.90537 -1.03043,0.761193 -0.58239,-0.788583 -4.90668,3.62407 0.5824,0.788582 -1.17616,0.86868 0.48111,0.651124 -4.332554,3.200321 -0.394293,-0.534334 0.762746,-0.56379 -0.668694,-0.905889 -1.743046,1.287262 -0.472321,-0.639755 2.511991,-1.8557 0.606679,0.822171 2.171442,-1.604036 -0.60668,-0.821656 0.5209,-0.38499 -0.593761,-0.804084 1.216981,-0.898655 -0.6687,-0.90537 -0.612361,0.452168 -0.562755,-0.761709 -2.158008,1.594218 -0.549323,-0.743625 -4.906677,3.624069 0.548804,0.743623 -1.890839,1.396814 -0.622186,-0.842843 -0.8909,0.657841 -0.417031,-0.564306 0.813906,-0.600995 -0.668695,-0.905373 -0.229444,0.1695 -0.406691,-0.550354 0.717267,-0.529686 -0.531749,-0.719851 0.68988,-0.50953 -0.600998,-0.813387 0.620635,-0.45837 -0.66921,-0.905888 -0.887802,0.655775 -0.504878,-0.683162 -0.31161,0.22996 -0.451133,-0.611333 0.797883,-0.589111 -0.668692,-0.905372 -0.83406,0.615984 z" id="path5885"/>
            <path style="fill:#4792d0;fill-opacity:1;stroke:none;stroke-width:0.177376px;stroke-linecap:butt;stroke-linejoin:round;stroke-opacity:0.988235;paint-order:markers fill stroke" d="m 112.35192,45.942708 h 10.46083 l -0.0493,2.280807 -3.61254,-0.05638 -0.43315,10.205975 -2.62302,-0.04304 0.37402,-10.117247 -4.11008,0.01535 z" id="path939-1-9-5"/>
            <path id="path931-3-9-7" style="fill:#4792d0;fill-opacity:1;stroke:none;stroke-width:0.177655;stroke-linecap:round;stroke-linejoin:round;stroke-miterlimit:4;stroke-dasharray:none;stroke-opacity:0.988235;paint-order:markers fill stroke" d="m 128.8136,46.000429 a 6.1449403,6.1449403 0 0 0 -6.14124,6.144966 6.1449403,6.1449403 0 0 0 6.1446,6.14496 6.1449403,6.1449403 0 0 0 6.14496,-6.14496 6.1449403,6.1449403 0 0 0 -6.14496,-6.144966 6.1449403,6.1449403 0 0 0 -0.003,0 z m 0.003,3.024627 a 3.1201165,3.1201165 0 0 1 3.12034,3.120339 3.1201165,3.1201165 0 0 1 -3.12034,3.119964 3.1201165,3.1201165 0 0 1 -3.11997,-3.119964 3.1201165,3.1201165 0 0 1 3.11997,-3.120339 z"/>
            <path id="path931-3-9-0-9" style="fill:#4792d0;fill-opacity:1;stroke:none;stroke-width:0.177655;stroke-linecap:round;stroke-linejoin:round;stroke-miterlimit:4;stroke-dasharray:none;stroke-opacity:0.988235;paint-order:markers fill stroke" d="m 152.71468,45.913525 a 6.1449403,6.1449403 0 0 0 -6.14124,6.144967 6.1449403,6.1449403 0 0 0 6.14459,6.144959 6.1449403,6.1449403 0 0 0 6.14497,-6.144959 6.1449403,6.1449403 0 0 0 -6.14497,-6.144967 6.1449403,6.1449403 0 0 0 -0.003,0 z m 0.003,3.024627 a 3.1201165,3.1201165 0 0 1 3.12035,3.12034 3.1201165,3.1201165 0 0 1 -3.12035,3.119964 3.1201165,3.1201165 0 0 1 -3.11996,-3.119964 3.1201165,3.1201165 0 0 1 3.11996,-3.12034 z"/>
            <path style="fill:#4792d0;fill-opacity:1;stroke:none;stroke-width:0.177376px;stroke-linecap:butt;stroke-linejoin:miter;stroke-opacity:0.988235" d="m 65.376462,57.705299 c 0,-0.122804 0.628729,-12.10855 0.628729,-12.10855 h 2.326563 l 6.019055,8.402792 0.306884,-8.344105 2.611808,0.05062 c 0,0 -0.417313,12.145596 -0.538072,12.125383 -0.120758,-0.02025 -2.742451,-0.103845 -2.742451,-0.103845 l -5.489711,-8.198937 -0.448482,8.299926 z" id="path1126-6"/>
            <path id="path1128-3" style="fill:#4792d0;fill-opacity:1;stroke:none;stroke-width:0.177376px;stroke-linecap:butt;stroke-linejoin:miter;stroke-opacity:0.988235" d="m 82.112156,46.097194 -4.556001,11.091201 2.133361,1.088505 1.63207,-3.694415 h 4.610391 l 1.442567,3.531589 2.198839,-0.983534 -4.486022,-11.033346 z m 1.536451,2.847367 1.514625,3.617158 h -3.073248 z"/>
            <path id="path1128-0-6" style="fill:#4792d0;fill-opacity:1;stroke:none;stroke-width:0.177376px;stroke-linecap:butt;stroke-linejoin:miter;stroke-opacity:0.988235" d="m 105.68359,46.076767 -4.556,11.091201 2.13336,1.088505 1.63207,-3.694408 h 4.61039 l 1.44256,3.531582 2.19884,-0.983534 -4.48602,-11.033346 z m 1.53645,2.847367 1.51462,3.617158 h -3.07324 z"/>
            <path style="fill:#4792d0;fill-opacity:1;stroke:none;stroke-width:0.177376px;stroke-linecap:butt;stroke-linejoin:miter;stroke-opacity:1" d="m 97.939545,54.075839 h -3.163243 v -2.395874 h 5.904578 l -0.0161,1.666381 c -0.0606,6.287117 -11.183108,7.128735 -11.183108,-1.137799 0,-6.292193 6.767387,-7.86933 10.794838,-3.8774 l -1.619205,1.863451 c -2.357774,-2.241998 -6.311649,-1.284019 -6.311649,1.978324 0,4.696397 5.593841,3.889111 5.593841,1.902917 z" id="path1155-9"/>
            <path id="path1161-4" style="fill:#4792d0;fill-opacity:1;stroke:none;stroke-width:0.177376px;stroke-linecap:butt;stroke-linejoin:miter;stroke-opacity:1" d="m 136.29292,45.832514 -0.57024,12.297495 2.7573,0.102893 0.14516,-4.909712 h 2.36617 l 2.29653,4.876802 2.18291,-1.114838 -2.00726,-3.846843 c 4.33998,-1.471691 2.54937,-7.268606 -0.4334,-7.268606 z m 2.70152,2.399428 h 3.12937 c 1.52047,1.74e-4 1.82445,2.837324 -0.22172,2.837324 h -3.00742 z"/>
            <path style="fill:none;fill-opacity:1;stroke:#195cb8;stroke-width:0.177376px;stroke-linecap:butt;stroke-linejoin:round;stroke-opacity:0.988235;paint-order:markers fill stroke" d="m 112.17471,45.766165 h 10.46083 l -0.0493,2.280807 -3.61254,-0.05638 -0.43315,10.205975 -2.62301,-0.04304 0.37401,-10.117247 -4.11008,0.01535 z" id="path19892-7"/>
            <path id="path19898-9" style="fill:none;fill-opacity:1;stroke:#195cb8;stroke-width:0.177655;stroke-linecap:round;stroke-linejoin:round;stroke-miterlimit:4;stroke-dasharray:none;stroke-opacity:0.988235;paint-order:markers fill stroke" d="m 128.6364,45.823886 a 6.1449403,6.1449403 0 0 0 -6.14124,6.144966 6.1449403,6.1449403 0 0 0 6.14459,6.14496 6.1449403,6.1449403 0 0 0 6.14496,-6.14496 6.1449403,6.1449403 0 0 0 -6.14496,-6.144966 6.1449403,6.1449403 0 0 0 -0.003,0 z m 0.003,3.024627 a 3.1201165,3.1201165 0 0 1 3.12034,3.120339 3.1201165,3.1201165 0 0 1 -3.12034,3.119964 3.1201165,3.1201165 0 0 1 -3.11997,-3.119964 3.1201165,3.1201165 0 0 1 3.11997,-3.120339 z"/>
            <path id="path19900-3" style="fill:none;fill-opacity:1;stroke:#195cb8;stroke-width:0.177655;stroke-linecap:round;stroke-linejoin:round;stroke-miterlimit:4;stroke-dasharray:none;stroke-opacity:0.988235;paint-order:markers fill stroke" d="m 152.53747,45.736982 a 6.1449403,6.1449403 0 0 0 -6.14124,6.144967 6.1449403,6.1449403 0 0 0 6.14459,6.144959 6.1449403,6.1449403 0 0 0 6.14497,-6.144959 6.1449403,6.1449403 0 0 0 -6.14497,-6.144967 6.1449403,6.1449403 0 0 0 -0.003,0 z m 0.003,3.024627 a 3.1201165,3.1201165 0 0 1 3.12035,3.12034 3.1201165,3.1201165 0 0 1 -3.12035,3.119964 3.1201165,3.1201165 0 0 1 -3.11996,-3.119964 3.1201165,3.1201165 0 0 1 3.11996,-3.12034 z"/>
            <path style="fill:none;fill-opacity:1;stroke:#195cb8;stroke-width:0.177376px;stroke-linecap:butt;stroke-linejoin:miter;stroke-opacity:0.988235" d="m 65.199255,57.528756 c 0,-0.122804 0.628729,-12.10855 0.628729,-12.10855 h 2.326563 l 6.019055,8.402792 0.306884,-8.344105 2.611808,0.05062 c 0,0 -0.417313,12.145596 -0.538072,12.125383 -0.120758,-0.02025 -2.742451,-0.103845 -2.742451,-0.103845 L 68.32206,49.352114 67.873578,57.65204 Z" id="path19918-0"/>
            <path id="path19920-9" style="fill:none;fill-opacity:1;stroke:#195cb8;stroke-width:0.177376px;stroke-linecap:butt;stroke-linejoin:miter;stroke-opacity:0.988235" d="m 81.934949,45.920651 -4.556001,11.091201 2.133361,1.088505 1.63207,-3.694415 h 4.610391 l 1.442567,3.531589 2.198839,-0.983534 -4.486022,-11.033346 z m 1.536451,2.847367 1.514625,3.617158 h -3.073248 z"/>
            <path id="path19922-1" style="fill:none;fill-opacity:1;stroke:#195cb8;stroke-width:0.177376px;stroke-linecap:butt;stroke-linejoin:miter;stroke-opacity:0.988235" d="m 105.50638,45.900224 -4.556,11.091201 2.13336,1.088505 1.63207,-3.694408 h 4.61039 l 1.44257,3.531582 2.19884,-0.983534 -4.48602,-11.033346 z m 1.53645,2.847367 1.51462,3.617158 h -3.07324 z"/>
            <path style="fill:none;fill-opacity:1;stroke:#195db8;stroke-width:0.177376px;stroke-linecap:butt;stroke-linejoin:miter;stroke-opacity:1" d="m 97.762338,53.899296 h -3.163243 v -2.395874 h 5.904575 l -0.016,1.666381 c -0.0606,6.287117 -11.183105,7.128735 -11.183105,-1.137799 0,-6.292193 6.767387,-7.86933 10.794835,-3.8774 l -1.619203,1.863451 c -2.357774,-2.241998 -6.311649,-1.284019 -6.311649,1.978324 0,4.696397 5.593841,3.889111 5.59384,1.902917 z" id="path19924-8"/>
            <path id="path19926-2" style="fill:none;fill-opacity:1;stroke:#1a5db8;stroke-width:0.177376px;stroke-linecap:butt;stroke-linejoin:miter;stroke-opacity:1" d="m 136.11572,45.655971 -0.57024,12.297495 2.75729,0.102893 0.14517,-4.909712 h 2.36616 l 2.29653,4.876802 2.18291,-1.114838 -2.00726,-3.846843 c 4.33998,-1.471691 2.54937,-7.268606 -0.4334,-7.268606 z m 2.70152,2.399428 h 3.12937 c 1.52046,1.74e-4 1.82444,2.837324 -0.22172,2.837324 h -3.00743 z"/>
          </g>
          <g id="g6602">
            <path style="display:inline;fill:#fff9a2;fill-opacity:1;stroke:none;stroke-width:0.134525;stroke-linecap:round;stroke-linejoin:round;paint-order:stroke fill markers" d="m 52.99187,45.971129 -3.571875,2.638084 0.668694,0.90537 0.665076,-0.490926 0.41031,0.555521 -0.534334,0.394809 0.515731,0.698148 -3.270086,2.414842 -0.524515,-0.710552 -0.203605,0.150379 -0.605131,-0.819074 -0.417028,0.307994 -0.528133,-0.714685 2.117183,-1.56373 -0.568441,-0.769461 0.495578,-0.365871 -0.420648,-0.569473 0.36432,-0.268717 -0.66921,-0.905372 -0.957048,0.706935 -0.500227,-0.677479 -0.293523,0.216524 -0.512112,-0.693499 -4.105693,3.032374 0.51263,0.694015 -3.231846,2.386934 -0.525547,-0.711584 1.627291,-1.201994 -0.506947,-0.686779 0.715203,-0.528135 -0.668695,-0.90537 -1.02371,0.756026 -0.270785,-0.366903 0.894003,-0.659908 -0.668692,-0.905888 -1.81746,1.342554 -0.563274,-0.762744 0.416513,-0.307475 -0.668693,-0.905888 -0.975135,0.72037 -0.51418,-0.696081 -4.754232,3.511931 -0.336415,-0.455787 0.557072,-0.411346 -0.668692,-0.905369 -0.108003,0.0801 -0.275437,-0.372586 0.833025,-0.615466 -0.66921,-0.905373 -1.030428,0.761193 -0.582393,-0.78858 -4.906677,3.624067 0.582393,0.788583 -1.176155,0.86868 0.668692,0.905888 0.993738,-0.734322 0.274918,0.372587 -1.641761,1.212847 0.668695,0.905888 0.314193,-0.232029 0.336412,0.455272 -0.861962,0.636653 0.51418,0.696082 -0.379306,0.280085 0.584978,0.791165 -1.045414,0.772047 0.647507,0.87695 -0.938446,0.692981 0.668692,0.90537 6.536553,-4.82813 0.502296,0.680064 1.02371,-0.756026 0.275436,0.373102 -0.715203,0.528651 0.668695,0.905888 0.0031,-0.0021 0.561724,0.760677 0.902272,-0.666107 0.310573,0.420645 -0.706933,0.521933 0.668693,0.90537 0.475424,-0.351399 0.576191,0.780312 2.776575,-2.051037 0.565859,0.765845 0.12609,-0.09302 0.582393,0.789098 0.48524,-0.358116 0.407212,0.551387 2.306836,-1.70429 -0.407212,-0.551386 0.520383,-0.384472 -0.582393,-0.788583 1.482079,-1.095023 0.618567,0.837674 0.417028,-0.307991 0.57826,0.782381 0.203089,-0.149863 0.460955,0.624253 -0.731221,0.540017 0.668692,0.905888 1.695503,-1.252119 0.6165,0.834057 0.953947,-0.70435 0.468188,0.634071 0.475941,-0.351401 0.550354,0.745175 1.677416,-1.2392 0.54777,0.742072 0.649573,-0.480073 0.609783,0.825788 0.257347,-0.190169 0.419613,0.567409 -0.56379,0.41651 0.572058,0.774115 -0.491958,0.363284 0.668692,0.905372 1.419035,-1.047999 0.535368,0.725538 3.661791,-2.704745 -0.535366,-0.725019 0.36897,-0.272852 -0.571543,-0.774113 0.491961,-0.363286 -0.456821,-0.619085 0.563274,-0.415994 -0.668692,-0.905372 -0.25735,0.190169 -0.631486,-0.854726 -0.149344,0.110585 -0.48886,-0.661974 0.232026,-0.171048 -0.668692,-0.905888 -0.47594,0.351398 -0.349848,-0.473871 4.068484,-3.004984 -0.668692,-0.905889 -0.168465,0.124024 -0.615985,-0.83406 -0.806669,0.595831 -0.515729,-0.698148 -0.791167,0.58446 -0.588595,-0.796851 -0.665075,0.490926 z" id="path5881"/>
            <path style="display:inline;fill:#fff9a2;fill-opacity:1;stroke:none;stroke-width:0.134525;stroke-linecap:round;stroke-linejoin:round;paint-order:stroke fill markers" d="m 35.520587,54.305505 0.632,0.855763 0.95705,-0.706935 0.25218,0.340548 -0.36432,0.269234 0.56844,0.769464 -1.52497,1.126546 -0.56586,-0.765845 -0.47594,0.351399 -0.43511,-0.588595 0.70693,-0.522449 -0.45165,-0.61133 z" id="path5883"/>
            <path style="fill:#4792d0;fill-opacity:1;stroke:none;stroke-width:0.177376px;stroke-linecap:butt;stroke-linejoin:miter;stroke-opacity:0.988235" d="m 36.575987,47.744559 2.75959,0.168578 -0.37595,9.481295 -2.86744,-0.08487 z" id="path1054-8-0"/>
            <path style="fill:#4792d0;fill-opacity:1;stroke:none;stroke-width:0.177376px;stroke-linecap:butt;stroke-linejoin:miter;stroke-opacity:0.988235" d="m 22.712725,58.743882 0.60869,-12.158153 h 2.631667 l 3.107172,4.359543 2.624594,-3.060694 h 2.806389 l -0.14623,9.815676 h -2.88244 l 0.21327,-6.167123 -1.444013,1.97296 h -2.240537 l -2.111051,-2.465106 -0.395135,7.715641 z" id="path1080-8-0"/>
            <path style="fill:#4792d0;fill-opacity:1;stroke:none;stroke-width:0.177376px;stroke-linecap:butt;stroke-linejoin:miter;stroke-opacity:1" d="m 56.385687,50.414961 1.21648,-1.865992 -2.34062,-1.542337 c -1.51672,-0.875674 -3.67538,-0.182315 -4.51122,0.828538 -0.83583,1.010852 -1.19322,3.059031 0.006,4.031785 0.67489,0.523487 1.09846,0.861716 2.65911,2.029274 1.56064,1.167558 0.0111,2.59281 -2.09305,1.503897 l -1.26336,-0.728555 -1.25561,2.198194 1.95295,1.149202 c 2.63667,1.058954 4.65376,0.198733 5.55277,-1.238459 1.24378,-2.096736 -0.17674,-3.949534 -1.33409,-4.58485 -1.15735,-0.635316 -1.78204,-1.059885 -1.78204,-1.059885 -0.64575,-0.372822 -0.65538,-1.110018 -0.3047,-1.568309 0.35067,-0.45829 1.03471,-0.611698 1.85983,-0.135313 z" id="path1168-8"/>
            <path style="fill:#4792d0;fill-opacity:1;stroke:none;stroke-width:0.177376px;stroke-linecap:butt;stroke-linejoin:miter;stroke-opacity:1" d="m 47.484627,51.110907 1.21649,-1.865991 -2.34063,-1.542337 c -1.51672,-0.875674 -3.67538,-0.182315 -4.51121,0.828537 -0.83584,1.010853 -1.19323,3.059032 0.006,4.031786 0.6749,0.523487 1.09847,0.861716 2.65911,2.029274 1.56064,1.167558 0.0111,2.59281 -2.09305,1.503896 l -1.26336,-0.728554 -1.25561,2.198194 1.95296,1.149202 c 2.63666,1.058954 4.65376,0.198733 5.55276,-1.238459 1.24378,-2.096736 -0.17674,-3.949535 -1.33409,-4.58485 -1.15735,-0.635316 -1.78204,-1.059886 -1.78204,-1.059886 -0.64575,-0.372821 -0.65537,-1.110018 -0.3047,-1.568308 0.35067,-0.458291 1.03471,-0.611698 1.85983,-0.135313 z" id="path1168-9-4"/>
            <path style="fill:none;fill-opacity:1;stroke:#195cb8;stroke-width:0.177376px;stroke-linecap:butt;stroke-linejoin:miter;stroke-opacity:0.988235" d="m 36.398777,47.568016 2.75959,0.168578 -0.37594,9.481295 -2.86744,-0.08487 z" id="path19904-8"/>
            <path style="fill:none;fill-opacity:1;stroke:#195cb8;stroke-width:0.177376px;stroke-linecap:butt;stroke-linejoin:miter;stroke-opacity:0.988235" d="m 22.535518,58.567339 0.60869,-12.158153 h 2.631667 l 3.107172,4.359543 2.624594,-3.060694 h 2.806396 l -0.14624,9.815676 H 31.28536 l 0.21327,-6.167123 -1.444013,1.97296 H 27.81408 l -2.111051,-2.465106 -0.395135,7.715641 z" id="path19912-0"/>
            <path style="fill:none;fill-opacity:1;stroke:#195cb8;stroke-width:0.177376px;stroke-linecap:butt;stroke-linejoin:miter;stroke-opacity:1" d="m 56.208477,50.238418 1.21649,-1.865992 -2.34063,-1.542337 c -1.51671,-0.875674 -3.67538,-0.182315 -4.51121,0.828538 -0.83583,1.010852 -1.19323,3.059031 0.006,4.031785 0.6749,0.523487 1.09847,0.861716 2.65911,2.029274 1.56064,1.167558 0.0111,2.59281 -2.09305,1.503897 l -1.26336,-0.728555 -1.25561,2.198194 1.95296,1.149202 c 2.63666,1.058954 4.65376,0.198733 5.55276,-1.238459 1.24378,-2.096736 -0.17674,-3.949534 -1.33409,-4.58485 -1.15735,-0.635316 -1.78204,-1.059885 -1.78204,-1.059885 -0.64575,-0.372822 -0.65537,-1.110018 -0.3047,-1.568309 0.35067,-0.45829 1.03471,-0.611698 1.85983,-0.135313 z" id="path19928-8"/>
            <path style="fill:none;fill-opacity:1;stroke:#195cb8;stroke-width:0.177376px;stroke-linecap:butt;stroke-linejoin:miter;stroke-opacity:1" d="m 47.307427,50.934364 1.21648,-1.865991 -2.34063,-1.542337 c -1.51671,-0.875674 -3.67538,-0.182315 -4.51121,0.828537 -0.83583,1.010853 -1.19323,3.059032 0.006,4.031786 0.6749,0.523487 1.09847,0.861716 2.65911,2.029274 1.56064,1.167558 0.0111,2.59281 -2.09304,1.503896 l -1.26337,-0.728554 -1.25561,2.198194 1.95296,1.149202 c 2.63666,1.058954 4.65376,0.198733 5.55276,-1.238459 1.24378,-2.096736 -0.17673,-3.949535 -1.33409,-4.58485 -1.15735,-0.635316 -1.78204,-1.059886 -1.78204,-1.059886 -0.64574,-0.372821 -0.65537,-1.110018 -0.3047,-1.568308 0.35067,-0.458291 1.03471,-0.611698 1.85983,-0.135313 z" id="path19930-7"/>
          </g>
        </g>
        <g id="g12442">
          <circle style="fill:#1a5db8;fill-opacity:1;stroke:none;stroke-width:0.264999;stroke-linecap:round;stroke-linejoin:round;stroke-miterlimit:4;stroke-dasharray:none;stroke-opacity:1;paint-order:markers fill stroke" id="circle11919" cx="32.968987" cy="-66.985718" r="0.26909018" transform="matrix(0.99957679,0.02909026,0.02909026,-0.99957679,0,0)"/>
          <circle style="fill:#1a5db8;fill-opacity:1;stroke:none;stroke-width:0.264999;stroke-linecap:round;stroke-linejoin:round;stroke-miterlimit:4;stroke-dasharray:none;stroke-opacity:1;paint-order:markers fill stroke" id="circle11921" cx="35.498501" cy="-66.985718" r="0.26909018" transform="matrix(0.99957679,0.02909026,0.02909026,-0.99957679,0,0)"/>
          <circle style="fill:#1a5db8;fill-opacity:1;stroke:none;stroke-width:0.264999;stroke-linecap:round;stroke-linejoin:round;stroke-miterlimit:4;stroke-dasharray:none;stroke-opacity:1;paint-order:markers fill stroke" id="circle11923" cx="38.028023" cy="-66.985718" r="0.26909018" transform="matrix(0.99957679,0.02909026,0.02909026,-0.99957679,0,0)"/>
          <circle style="fill:#1a5db8;fill-opacity:1;stroke:none;stroke-width:0.264999;stroke-linecap:round;stroke-linejoin:round;stroke-miterlimit:4;stroke-dasharray:none;stroke-opacity:1;paint-order:markers fill stroke" id="circle11925" cx="40.557533" cy="-66.985718" r="0.26909018" transform="matrix(0.99957679,0.02909026,0.02909026,-0.99957679,0,0)"/>
          <circle style="fill:#1a5db8;fill-opacity:1;stroke:none;stroke-width:0.264999;stroke-linecap:round;stroke-linejoin:round;stroke-miterlimit:4;stroke-dasharray:none;stroke-opacity:1;paint-order:markers fill stroke" id="circle11927" cx="43.087051" cy="-66.985718" r="0.26909018" transform="matrix(0.99957679,0.02909026,0.02909026,-0.99957679,0,0)"/>
          <circle style="fill:#1a5db8;fill-opacity:1;stroke:none;stroke-width:0.264999;stroke-linecap:round;stroke-linejoin:round;stroke-miterlimit:4;stroke-dasharray:none;stroke-opacity:1;paint-order:markers fill stroke" id="circle11929" cx="45.61657" cy="-66.985718" r="0.26909018" transform="matrix(0.99957679,0.02909026,0.02909026,-0.99957679,0,0)"/>
          <circle style="fill:#1a5db8;fill-opacity:1;stroke:none;stroke-width:0.264999;stroke-linecap:round;stroke-linejoin:round;stroke-miterlimit:4;stroke-dasharray:none;stroke-opacity:1;paint-order:markers fill stroke" id="circle11931" cx="48.14608" cy="-66.985718" r="0.26909018" transform="matrix(0.99957679,0.02909026,0.02909026,-0.99957679,0,0)"/>
          <circle style="fill:#1a5db8;fill-opacity:1;stroke:none;stroke-width:0.264999;stroke-linecap:round;stroke-linejoin:round;stroke-miterlimit:4;stroke-dasharray:none;stroke-opacity:1;paint-order:markers fill stroke" id="circle11933" cx="50.675591" cy="-66.985718" r="0.26909018" transform="matrix(0.99957679,0.02909026,0.02909026,-0.99957679,0,0)"/>
          <circle style="fill:#1a5db8;fill-opacity:1;stroke:none;stroke-width:0.264999;stroke-linecap:round;stroke-linejoin:round;stroke-miterlimit:4;stroke-dasharray:none;stroke-opacity:1;paint-order:markers fill stroke" id="circle11935" cx="53.205101" cy="-66.985718" r="0.26909018" transform="matrix(0.99957679,0.02909026,0.02909026,-0.99957679,0,0)"/>
          <circle style="fill:#1a5db8;fill-opacity:1;stroke:none;stroke-width:0.264999;stroke-linecap:round;stroke-linejoin:round;stroke-miterlimit:4;stroke-dasharray:none;stroke-opacity:1;paint-order:markers fill stroke" id="circle11937" cx="55.734619" cy="-66.985718" r="0.26909018" transform="matrix(0.99957679,0.02909026,0.02909026,-0.99957679,0,0)"/>
          <circle style="fill:#1a5db8;fill-opacity:1;stroke:none;stroke-width:0.264999;stroke-linecap:round;stroke-linejoin:round;stroke-miterlimit:4;stroke-dasharray:none;stroke-opacity:1;paint-order:markers fill stroke" id="circle11939" cx="58.26413" cy="-66.985718" r="0.26909018" transform="matrix(0.99957679,0.02909026,0.02909026,-0.99957679,0,0)"/>
          <circle style="fill:#1a5db8;fill-opacity:1;stroke:none;stroke-width:0.264999;stroke-linecap:round;stroke-linejoin:round;stroke-miterlimit:4;stroke-dasharray:none;stroke-opacity:1;paint-order:markers fill stroke" id="circle11941" cx="60.79364" cy="-66.985718" r="0.26909018" transform="matrix(0.99957679,0.02909026,0.02909026,-0.99957679,0,0)"/>
          <circle style="fill:#1a5db8;fill-opacity:1;stroke:none;stroke-width:0.264999;stroke-linecap:round;stroke-linejoin:round;stroke-miterlimit:4;stroke-dasharray:none;stroke-opacity:1;paint-order:markers fill stroke" id="circle11943" cx="63.323158" cy="-66.985718" r="0.26909018" transform="matrix(0.99957679,0.02909026,0.02909026,-0.99957679,0,0)"/>
          <circle style="fill:#1a5db8;fill-opacity:1;stroke:none;stroke-width:0.264999;stroke-linecap:round;stroke-linejoin:round;stroke-miterlimit:4;stroke-dasharray:none;stroke-opacity:1;paint-order:markers fill stroke" id="circle11945" cx="65.852669" cy="-66.985718" r="0.26909018" transform="matrix(0.99957679,0.02909026,0.02909026,-0.99957679,0,0)"/>
          <circle style="fill:#1a5db8;fill-opacity:1;stroke:none;stroke-width:0.264999;stroke-linecap:round;stroke-linejoin:round;stroke-miterlimit:4;stroke-dasharray:none;stroke-opacity:1;paint-order:markers fill stroke" id="circle11947" cx="68.382179" cy="-66.985718" r="0.26909018" transform="matrix(0.99957679,0.02909026,0.02909026,-0.99957679,0,0)"/>
          <circle style="fill:#1a5db8;fill-opacity:1;stroke:none;stroke-width:0.264999;stroke-linecap:round;stroke-linejoin:round;stroke-miterlimit:4;stroke-dasharray:none;stroke-opacity:1;paint-order:markers fill stroke" id="circle11949" cx="70.911697" cy="-66.985718" r="0.26909018" transform="matrix(0.99957679,0.02909026,0.02909026,-0.99957679,0,0)"/>
          <circle style="fill:#1a5db8;fill-opacity:1;stroke:none;stroke-width:0.264999;stroke-linecap:round;stroke-linejoin:round;stroke-miterlimit:4;stroke-dasharray:none;stroke-opacity:1;paint-order:markers fill stroke" id="circle11951" cx="73.441208" cy="-66.985718" r="0.26909018" transform="matrix(0.99957679,0.02909026,0.02909026,-0.99957679,0,0)"/>
          <circle style="fill:#1a5db8;fill-opacity:1;stroke:none;stroke-width:0.264999;stroke-linecap:round;stroke-linejoin:round;stroke-miterlimit:4;stroke-dasharray:none;stroke-opacity:1;paint-order:markers fill stroke" id="circle11953" cx="75.970718" cy="-66.985718" r="0.26909018" transform="matrix(0.99957679,0.02909026,0.02909026,-0.99957679,0,0)"/>
          <circle style="fill:#1a5db8;fill-opacity:1;stroke:none;stroke-width:0.264999;stroke-linecap:round;stroke-linejoin:round;stroke-miterlimit:4;stroke-dasharray:none;stroke-opacity:1;paint-order:markers fill stroke" id="circle11955" cx="78.500237" cy="-66.985718" r="0.26909018" transform="matrix(0.99957679,0.02909026,0.02909026,-0.99957679,0,0)"/>
          <circle style="fill:#1a5db8;fill-opacity:1;stroke:none;stroke-width:0.264999;stroke-linecap:round;stroke-linejoin:round;stroke-miterlimit:4;stroke-dasharray:none;stroke-opacity:1;paint-order:markers fill stroke" id="circle11957" cx="81.029747" cy="-66.985718" r="0.26909018" transform="matrix(0.99957679,0.02909026,0.02909026,-0.99957679,0,0)"/>
          <circle style="fill:#1a5db8;fill-opacity:1;stroke:none;stroke-width:0.264999;stroke-linecap:round;stroke-linejoin:round;stroke-miterlimit:4;stroke-dasharray:none;stroke-opacity:1;paint-order:markers fill stroke" id="circle11959" cx="83.559258" cy="-66.985718" r="0.26909018" transform="matrix(0.99957679,0.02909026,0.02909026,-0.99957679,0,0)"/>
          <circle style="fill:#1a5db8;fill-opacity:1;stroke:none;stroke-width:0.264999;stroke-linecap:round;stroke-linejoin:round;stroke-miterlimit:4;stroke-dasharray:none;stroke-opacity:1;paint-order:markers fill stroke" id="circle11961" cx="86.088776" cy="-66.985718" r="0.26909018" transform="matrix(0.99957679,0.02909026,0.02909026,-0.99957679,0,0)"/>
          <circle style="fill:#1a5db8;fill-opacity:1;stroke:none;stroke-width:0.264999;stroke-linecap:round;stroke-linejoin:round;stroke-miterlimit:4;stroke-dasharray:none;stroke-opacity:1;paint-order:markers fill stroke" id="circle11963" cx="88.618286" cy="-66.985718" r="0.26909018" transform="matrix(0.99957679,0.02909026,0.02909026,-0.99957679,0,0)"/>
          <circle style="fill:#1a5db8;fill-opacity:1;stroke:none;stroke-width:0.264999;stroke-linecap:round;stroke-linejoin:round;stroke-miterlimit:4;stroke-dasharray:none;stroke-opacity:1;paint-order:markers fill stroke" id="circle11965" cx="91.147797" cy="-66.985718" r="0.26909018" transform="matrix(0.99957679,0.02909026,0.02909026,-0.99957679,0,0)"/>
          <circle style="fill:#1a5db8;fill-opacity:1;stroke:none;stroke-width:0.264999;stroke-linecap:round;stroke-linejoin:round;stroke-miterlimit:4;stroke-dasharray:none;stroke-opacity:1;paint-order:markers fill stroke" id="circle11967" cx="93.677315" cy="-66.985718" r="0.26909018" transform="matrix(0.99957679,0.02909026,0.02909026,-0.99957679,0,0)"/>
          <circle style="fill:#1a5db8;fill-opacity:1;stroke:none;stroke-width:0.264999;stroke-linecap:round;stroke-linejoin:round;stroke-miterlimit:4;stroke-dasharray:none;stroke-opacity:1;paint-order:markers fill stroke" id="circle11969" cx="96.206825" cy="-66.985718" r="0.26909018" transform="matrix(0.99957679,0.02909026,0.02909026,-0.99957679,0,0)"/>
          <circle style="fill:#1a5db8;fill-opacity:1;stroke:none;stroke-width:0.264999;stroke-linecap:round;stroke-linejoin:round;stroke-miterlimit:4;stroke-dasharray:none;stroke-opacity:1;paint-order:markers fill stroke" id="circle11971" cx="98.736336" cy="-66.985718" r="0.26909018" transform="matrix(0.99957679,0.02909026,0.02909026,-0.99957679,0,0)"/>
          <circle style="fill:#1a5db8;fill-opacity:1;stroke:none;stroke-width:0.264999;stroke-linecap:round;stroke-linejoin:round;stroke-miterlimit:4;stroke-dasharray:none;stroke-opacity:1;paint-order:markers fill stroke" id="circle11973" cx="101.26585" cy="-66.985718" r="0.26909018" transform="matrix(0.99957679,0.02909026,0.02909026,-0.99957679,0,0)"/>
          <circle style="fill:#1a5db8;fill-opacity:1;stroke:none;stroke-width:0.264999;stroke-linecap:round;stroke-linejoin:round;stroke-miterlimit:4;stroke-dasharray:none;stroke-opacity:1;paint-order:markers fill stroke" id="circle11975" cx="103.79536" cy="-66.985718" r="0.26909018" transform="matrix(0.99957679,0.02909026,0.02909026,-0.99957679,0,0)"/>
          <circle style="fill:#1a5db8;fill-opacity:1;stroke:none;stroke-width:0.264999;stroke-linecap:round;stroke-linejoin:round;stroke-miterlimit:4;stroke-dasharray:none;stroke-opacity:1;paint-order:markers fill stroke" id="circle11977" cx="106.32488" cy="-66.985718" r="0.26909018" transform="matrix(0.99957679,0.02909026,0.02909026,-0.99957679,0,0)"/>
          <circle style="fill:#1a5db8;fill-opacity:1;stroke:none;stroke-width:0.264999;stroke-linecap:round;stroke-linejoin:round;stroke-miterlimit:4;stroke-dasharray:none;stroke-opacity:1;paint-order:markers fill stroke" id="circle11979" cx="108.85439" cy="-66.985718" r="0.26909018" transform="matrix(0.99957679,0.02909026,0.02909026,-0.99957679,0,0)"/>
          <circle style="fill:#1a5db8;fill-opacity:1;stroke:none;stroke-width:0.264999;stroke-linecap:round;stroke-linejoin:round;stroke-miterlimit:4;stroke-dasharray:none;stroke-opacity:1;paint-order:markers fill stroke" id="circle11981" cx="111.3839" cy="-66.985718" r="0.26909018" transform="matrix(0.99957679,0.02909026,0.02909026,-0.99957679,0,0)"/>
          <circle style="fill:#1a5db8;fill-opacity:1;stroke:none;stroke-width:0.264999;stroke-linecap:round;stroke-linejoin:round;stroke-miterlimit:4;stroke-dasharray:none;stroke-opacity:1;paint-order:markers fill stroke" id="circle11983" cx="113.91341" cy="-66.985718" r="0.26909018" transform="matrix(0.99957679,0.02909026,0.02909026,-0.99957679,0,0)"/>
          <circle style="fill:#1a5db8;fill-opacity:1;stroke:none;stroke-width:0.264999;stroke-linecap:round;stroke-linejoin:round;stroke-miterlimit:4;stroke-dasharray:none;stroke-opacity:1;paint-order:markers fill stroke" id="circle11985" cx="116.44292" cy="-66.985718" r="0.26909018" transform="matrix(0.99957679,0.02909026,0.02909026,-0.99957679,0,0)"/>
          <circle style="fill:#1a5db8;fill-opacity:1;stroke:none;stroke-width:0.264999;stroke-linecap:round;stroke-linejoin:round;stroke-miterlimit:4;stroke-dasharray:none;stroke-opacity:1;paint-order:markers fill stroke" id="circle11987" cx="118.97243" cy="-66.985718" r="0.26909018" transform="matrix(0.99957679,0.02909026,0.02909026,-0.99957679,0,0)"/>
          <circle style="fill:#1a5db8;fill-opacity:1;stroke:none;stroke-width:0.264999;stroke-linecap:round;stroke-linejoin:round;stroke-miterlimit:4;stroke-dasharray:none;stroke-opacity:1;paint-order:markers fill stroke" id="circle11989" cx="121.50196" cy="-66.985718" r="0.26909018" transform="matrix(0.99957679,0.02909026,0.02909026,-0.99957679,0,0)"/>
          <circle style="fill:#1a5db8;fill-opacity:1;stroke:none;stroke-width:0.264999;stroke-linecap:round;stroke-linejoin:round;stroke-miterlimit:4;stroke-dasharray:none;stroke-opacity:1;paint-order:markers fill stroke" id="circle11991" cx="124.03147" cy="-66.985718" r="0.26909018" transform="matrix(0.99957679,0.02909026,0.02909026,-0.99957679,0,0)"/>
          <circle style="fill:#1a5db8;fill-opacity:1;stroke:none;stroke-width:0.264999;stroke-linecap:round;stroke-linejoin:round;stroke-miterlimit:4;stroke-dasharray:none;stroke-opacity:1;paint-order:markers fill stroke" id="circle11993" cx="126.56098" cy="-66.985718" r="0.26909018" transform="matrix(0.99957679,0.02909026,0.02909026,-0.99957679,0,0)"/>
          <circle style="fill:#1a5db8;fill-opacity:1;stroke:none;stroke-width:0.264999;stroke-linecap:round;stroke-linejoin:round;stroke-miterlimit:4;stroke-dasharray:none;stroke-opacity:1;paint-order:markers fill stroke" id="circle11995" cx="129.09048" cy="-66.985718" r="0.26909018" transform="matrix(0.99957679,0.02909026,0.02909026,-0.99957679,0,0)"/>
          <circle style="fill:#1a5db8;fill-opacity:1;stroke:none;stroke-width:0.264999;stroke-linecap:round;stroke-linejoin:round;stroke-miterlimit:4;stroke-dasharray:none;stroke-opacity:1;paint-order:markers fill stroke" id="circle11997" cx="131.62" cy="-66.985718" r="0.26909018" transform="matrix(0.99957679,0.02909026,0.02909026,-0.99957679,0,0)"/>
          <circle style="fill:#1a5db8;fill-opacity:1;stroke:none;stroke-width:0.264999;stroke-linecap:round;stroke-linejoin:round;stroke-miterlimit:4;stroke-dasharray:none;stroke-opacity:1;paint-order:markers fill stroke" id="circle11999" cx="134.14951" cy="-66.985718" r="0.26909018" transform="matrix(0.99957679,0.02909026,0.02909026,-0.99957679,0,0)"/>
          <circle style="fill:#1a5db8;fill-opacity:1;stroke:none;stroke-width:0.264999;stroke-linecap:round;stroke-linejoin:round;stroke-miterlimit:4;stroke-dasharray:none;stroke-opacity:1;paint-order:markers fill stroke" id="circle12001" cx="136.67902" cy="-66.985718" r="0.26909018" transform="matrix(0.99957679,0.02909026,0.02909026,-0.99957679,0,0)"/>
          <circle style="fill:#1a5db8;fill-opacity:1;stroke:none;stroke-width:0.264999;stroke-linecap:round;stroke-linejoin:round;stroke-miterlimit:4;stroke-dasharray:none;stroke-opacity:1;paint-order:markers fill stroke" id="circle12003" cx="139.20854" cy="-66.985718" r="0.26909018" transform="matrix(0.99957679,0.02909026,0.02909026,-0.99957679,0,0)"/>
          <circle style="fill:#1a5db8;fill-opacity:1;stroke:none;stroke-width:0.264999;stroke-linecap:round;stroke-linejoin:round;stroke-miterlimit:4;stroke-dasharray:none;stroke-opacity:1;paint-order:markers fill stroke" id="circle12005" cx="141.73805" cy="-66.985718" r="0.26909018" transform="matrix(0.99957679,0.02909026,0.02909026,-0.99957679,0,0)"/>
          <circle style="fill:#1a5db8;fill-opacity:1;stroke:none;stroke-width:0.264999;stroke-linecap:round;stroke-linejoin:round;stroke-miterlimit:4;stroke-dasharray:none;stroke-opacity:1;paint-order:markers fill stroke" id="circle12007" cx="144.26756" cy="-66.985718" r="0.26909018" transform="matrix(0.99957679,0.02909026,0.02909026,-0.99957679,0,0)"/>
          <circle style="fill:#1a5db8;fill-opacity:1;stroke:none;stroke-width:0.264999;stroke-linecap:round;stroke-linejoin:round;stroke-miterlimit:4;stroke-dasharray:none;stroke-opacity:1;paint-order:markers fill stroke" id="circle12009" cx="146.79707" cy="-66.985718" r="0.26909018" transform="matrix(0.99957679,0.02909026,0.02909026,-0.99957679,0,0)"/>
          <circle style="fill:#1a5db8;fill-opacity:1;stroke:none;stroke-width:0.264999;stroke-linecap:round;stroke-linejoin:round;stroke-miterlimit:4;stroke-dasharray:none;stroke-opacity:1;paint-order:markers fill stroke" id="circle12011" cx="149.32658" cy="-66.985718" r="0.26909018" transform="matrix(0.99957679,0.02909026,0.02909026,-0.99957679,0,0)"/>
          <circle style="fill:#1a5db8;fill-opacity:1;stroke:none;stroke-width:0.264999;stroke-linecap:round;stroke-linejoin:round;stroke-miterlimit:4;stroke-dasharray:none;stroke-opacity:1;paint-order:markers fill stroke" id="circle12013" cx="151.85609" cy="-66.985718" r="0.26909018" transform="matrix(0.99957679,0.02909026,0.02909026,-0.99957679,0,0)"/>
          <circle style="fill:#1a5db8;fill-opacity:1;stroke:none;stroke-width:0.264999;stroke-linecap:round;stroke-linejoin:round;stroke-miterlimit:4;stroke-dasharray:none;stroke-opacity:1;paint-order:markers fill stroke" id="circle12015" cx="154.38562" cy="-66.985718" r="0.26909018" transform="matrix(0.99957679,0.02909026,0.02909026,-0.99957679,0,0)"/>
          <circle style="fill:#1a5db8;fill-opacity:1;stroke:none;stroke-width:0.264999;stroke-linecap:round;stroke-linejoin:round;stroke-miterlimit:4;stroke-dasharray:none;stroke-opacity:1;paint-order:markers fill stroke" id="circle12017" cx="156.91449" cy="-66.985718" r="0.26909018" transform="matrix(0.99957679,0.02909026,0.02909026,-0.99957679,0,0)"/>
          <circle style="fill:#1a5db8;fill-opacity:1;stroke:none;stroke-width:0.264999;stroke-linecap:round;stroke-linejoin:round;stroke-miterlimit:4;stroke-dasharray:none;stroke-opacity:1;paint-order:markers fill stroke" id="circle12019" cx="159.44402" cy="-66.985718" r="0.26909018" transform="matrix(0.99957679,0.02909026,0.02909026,-0.99957679,0,0)"/>
          <circle style="fill:#1a5db8;fill-opacity:1;stroke:none;stroke-width:0.264999;stroke-linecap:round;stroke-linejoin:round;stroke-miterlimit:4;stroke-dasharray:none;stroke-opacity:1;paint-order:markers fill stroke" id="circle12021" cx="161.97353" cy="-66.985718" r="0.26909018" transform="matrix(0.99957679,0.02909026,0.02909026,-0.99957679,0,0)"/>
          <circle style="fill:#1a5db8;fill-opacity:1;stroke:none;stroke-width:0.264999;stroke-linecap:round;stroke-linejoin:round;stroke-miterlimit:4;stroke-dasharray:none;stroke-opacity:1;paint-order:markers fill stroke" id="circle12023" cx="164.50304" cy="-66.985718" r="0.26909018" transform="matrix(0.99957679,0.02909026,0.02909026,-0.99957679,0,0)"/>
          <circle style="fill:#1a5db8;fill-opacity:1;stroke:none;stroke-width:0.264999;stroke-linecap:round;stroke-linejoin:round;stroke-miterlimit:4;stroke-dasharray:none;stroke-opacity:1;paint-order:markers fill stroke" id="circle12025" cx="167.03256" cy="-66.985718" r="0.26909018" transform="matrix(0.99957679,0.02909026,0.02909026,-0.99957679,0,0)"/>
          <circle style="fill:#1a5db8;fill-opacity:1;stroke:none;stroke-width:0.264999;stroke-linecap:round;stroke-linejoin:round;stroke-miterlimit:4;stroke-dasharray:none;stroke-opacity:1;paint-order:markers fill stroke" id="circle12027" cx="169.56207" cy="-66.985718" r="0.26909018" transform="matrix(0.99957679,0.02909026,0.02909026,-0.99957679,0,0)"/>
          <circle style="fill:#1a5db8;fill-opacity:1;stroke:none;stroke-width:0.264999;stroke-linecap:round;stroke-linejoin:round;stroke-miterlimit:4;stroke-dasharray:none;stroke-opacity:1;paint-order:markers fill stroke" id="circle12029" cx="172.09158" cy="-66.985718" r="0.26909018" transform="matrix(0.99957679,0.02909026,0.02909026,-0.99957679,0,0)"/>
          <circle style="fill:#1a5db8;fill-opacity:1;stroke:none;stroke-width:0.264999;stroke-linecap:round;stroke-linejoin:round;stroke-miterlimit:4;stroke-dasharray:none;stroke-opacity:1;paint-order:markers fill stroke" id="circle12031" cx="174.62109" cy="-66.985718" r="0.26909018" transform="matrix(0.99957679,0.02909026,0.02909026,-0.99957679,0,0)"/>
          <circle style="fill:#1a5db8;fill-opacity:1;stroke:none;stroke-width:0.264999;stroke-linecap:round;stroke-linejoin:round;stroke-miterlimit:4;stroke-dasharray:none;stroke-opacity:1;paint-order:markers fill stroke" id="circle12033" cx="177.1506" cy="-66.985718" r="0.26909018" transform="matrix(0.99957679,0.02909026,0.02909026,-0.99957679,0,0)"/>
          <circle style="fill:#1a5db8;fill-opacity:1;stroke:none;stroke-width:0.264999;stroke-linecap:round;stroke-linejoin:round;stroke-miterlimit:4;stroke-dasharray:none;stroke-opacity:1;paint-order:markers fill stroke" id="circle12035" cx="179.68011" cy="-66.985718" r="0.26909018" transform="matrix(0.99957679,0.02909026,0.02909026,-0.99957679,0,0)"/>
          <circle style="fill:#1a5db8;fill-opacity:1;stroke:none;stroke-width:0.264999;stroke-linecap:round;stroke-linejoin:round;stroke-miterlimit:4;stroke-dasharray:none;stroke-opacity:1;paint-order:markers fill stroke" id="circle12037" cx="182.20963" cy="-66.985718" r="0.26909018" transform="matrix(0.99957679,0.02909026,0.02909026,-0.99957679,0,0)"/>
        </g>
      </g>
    </g>
  </g>
</svg>
