<?xml version="1.0" standalone="no"?>
<!DOCTYPE svg PUBLIC "-//W3C//DTD SVG 20010904//EN"
 "http://www.w3.org/TR/2001/REC-SVG-20010904/DTD/svg10.dtd">
<svg version="1.0" xmlns="http://www.w3.org/2000/svg"
 width="980.000000pt" height="980.000000pt" viewBox="0 0 980.000000 980.000000"
 preserveAspectRatio="xMidYMid meet">

<g transform="translate(0.000000,980.000000) scale(0.100000,-0.100000)"
fill="#b92c27" stroke="none">
<path d="M4560 9789 c-1035 -75 -1992 -461 -2800 -1127 -148 -122 -500 -474
-622 -622 -534 -647 -880 -1372 -1042 -2180 -259 -1290 18 -2648 761 -3727
277 -403 628 -778 1018 -1087 930 -737 2150 -1115 3337 -1036 1418 95 2699
777 3569 1900 456 589 776 1292 923 2030 300 1503 -115 3044 -1130 4200 -118
135 -390 401 -519 509 -771 643 -1656 1018 -2655 1126 -174 19 -664 27 -840
14z m825 -903 c1190 -131 2165 -681 2802 -1582 628 -888 865 -2109 637 -3289
-122 -633 -378 -1196 -774 -1702 -109 -139 -413 -444 -555 -557 -444 -352
-948 -598 -1510 -736 -696 -171 -1475 -171 -2170 0 -568 140 -1068 385 -1525
749 -128 102 -426 401 -532 534 -479 602 -752 1292 -845 2127 -24 218 -23 723
1 945 60 549 196 1020 422 1466 599 1179 1730 1918 3134 2049 194 18 207 18
495 14 160 -2 340 -10 420 -18z"/>
<path d="M3560 4900 c0 -2052 1 -2222 16 -2216 25 9 3544 2210 3544 2216 0 6
-3518 2206 -3542 2216 -17 6 -18 -104 -18 -2216z"/>
</g>
</svg>
